<mxfile host="Electron" agent="Mozilla/5.0 (Windows NT 10.0; Win64; x64) AppleWebKit/537.36 (KHTML, like Gecko) draw.io/26.2.15 Chrome/134.0.6998.205 Electron/35.2.1 Safari/537.36" version="26.2.15" pages="2">
  <diagram id="7kJ2B2iBmlTIgLTiESFP" name="ERD_diagram">
    <mxGraphModel dx="894" dy="517" grid="1" gridSize="10" guides="1" tooltips="1" connect="1" arrows="1" fold="1" page="1" pageScale="1" pageWidth="850" pageHeight="1100" math="0" shadow="0">
      <root>
        <mxCell id="0" />
        <mxCell id="1" parent="0" />
        <mxCell id="ZGm1ggxYHmSDCsutLMKt-1" value="&lt;font style=&quot;font-size: 14px;&quot;&gt;user_account&lt;/font&gt;" style="rounded=1;whiteSpace=wrap;html=1;" parent="1" vertex="1">
          <mxGeometry x="280" y="120" width="120" height="80" as="geometry" />
        </mxCell>
        <mxCell id="ZGm1ggxYHmSDCsutLMKt-2" value="" style="ellipse;whiteSpace=wrap;html=1;aspect=fixed;fillColor=#330000;" parent="1" vertex="1">
          <mxGeometry x="335" y="60" width="10" height="10" as="geometry" />
        </mxCell>
        <mxCell id="ZGm1ggxYHmSDCsutLMKt-3" value="" style="endArrow=none;html=1;rounded=0;exitX=0.5;exitY=0;exitDx=0;exitDy=0;entryX=0.5;entryY=1;entryDx=0;entryDy=0;" parent="1" source="ZGm1ggxYHmSDCsutLMKt-1" target="ZGm1ggxYHmSDCsutLMKt-2" edge="1">
          <mxGeometry width="50" height="50" relative="1" as="geometry">
            <mxPoint x="600" y="200" as="sourcePoint" />
            <mxPoint x="380" y="50" as="targetPoint" />
          </mxGeometry>
        </mxCell>
        <mxCell id="ZGm1ggxYHmSDCsutLMKt-4" value="&lt;font style=&quot;font-size: 14px;&quot;&gt;user_id&lt;/font&gt;" style="text;html=1;align=center;verticalAlign=middle;resizable=0;points=[];autosize=1;strokeColor=none;fillColor=none;" parent="1" vertex="1">
          <mxGeometry x="305" y="30" width="70" height="30" as="geometry" />
        </mxCell>
        <mxCell id="2Qhk5Z57NiU1Cio3jHi0-1" value="" style="ellipse;whiteSpace=wrap;html=1;aspect=fixed;fillColor=none;" parent="1" vertex="1">
          <mxGeometry x="390" y="70" width="10" height="10" as="geometry" />
        </mxCell>
        <mxCell id="2Qhk5Z57NiU1Cio3jHi0-2" value="" style="endArrow=none;html=1;rounded=0;exitX=0.5;exitY=0;exitDx=0;exitDy=0;entryX=0.5;entryY=1;entryDx=0;entryDy=0;" parent="1" source="ZGm1ggxYHmSDCsutLMKt-1" target="2Qhk5Z57NiU1Cio3jHi0-1" edge="1">
          <mxGeometry width="50" height="50" relative="1" as="geometry">
            <mxPoint x="350" y="130" as="sourcePoint" />
            <mxPoint x="390" y="60" as="targetPoint" />
          </mxGeometry>
        </mxCell>
        <mxCell id="2Qhk5Z57NiU1Cio3jHi0-3" value="&lt;font style=&quot;font-size: 14px;&quot;&gt;email&lt;/font&gt;" style="text;html=1;align=center;verticalAlign=middle;resizable=0;points=[];autosize=1;strokeColor=none;fillColor=none;" parent="1" vertex="1">
          <mxGeometry x="365" y="40" width="60" height="30" as="geometry" />
        </mxCell>
        <mxCell id="VRKLeIG8ugABWQ9SR3Oq-2" value="" style="ellipse;whiteSpace=wrap;html=1;aspect=fixed;fillColor=none;" parent="1" vertex="1">
          <mxGeometry x="270" y="70" width="10" height="10" as="geometry" />
        </mxCell>
        <mxCell id="VRKLeIG8ugABWQ9SR3Oq-3" value="" style="endArrow=none;html=1;rounded=0;exitX=0.5;exitY=0;exitDx=0;exitDy=0;entryX=0.5;entryY=1;entryDx=0;entryDy=0;" parent="1" source="ZGm1ggxYHmSDCsutLMKt-1" target="VRKLeIG8ugABWQ9SR3Oq-2" edge="1">
          <mxGeometry width="50" height="50" relative="1" as="geometry">
            <mxPoint x="350" y="130" as="sourcePoint" />
            <mxPoint x="400" y="70" as="targetPoint" />
          </mxGeometry>
        </mxCell>
        <mxCell id="VRKLeIG8ugABWQ9SR3Oq-4" value="&lt;font style=&quot;font-size: 14px;&quot;&gt;password&lt;/font&gt;" style="text;html=1;align=center;verticalAlign=middle;resizable=0;points=[];autosize=1;strokeColor=none;fillColor=none;" parent="1" vertex="1">
          <mxGeometry x="240" y="40" width="80" height="30" as="geometry" />
        </mxCell>
        <mxCell id="VRKLeIG8ugABWQ9SR3Oq-5" value="" style="ellipse;whiteSpace=wrap;html=1;aspect=fixed;fillColor=none;" parent="1" vertex="1">
          <mxGeometry x="450" y="80" width="10" height="10" as="geometry" />
        </mxCell>
        <mxCell id="VRKLeIG8ugABWQ9SR3Oq-6" value="" style="endArrow=none;html=1;rounded=0;exitX=0.5;exitY=0;exitDx=0;exitDy=0;entryX=0.5;entryY=1;entryDx=0;entryDy=0;" parent="1" source="ZGm1ggxYHmSDCsutLMKt-1" target="VRKLeIG8ugABWQ9SR3Oq-5" edge="1">
          <mxGeometry width="50" height="50" relative="1" as="geometry">
            <mxPoint x="360" y="140" as="sourcePoint" />
            <mxPoint x="410" y="80" as="targetPoint" />
          </mxGeometry>
        </mxCell>
        <mxCell id="VRKLeIG8ugABWQ9SR3Oq-7" value="&lt;font style=&quot;font-size: 14px;&quot;&gt;username&lt;/font&gt;" style="text;html=1;align=center;verticalAlign=middle;resizable=0;points=[];autosize=1;strokeColor=none;fillColor=none;" parent="1" vertex="1">
          <mxGeometry x="410" y="50" width="90" height="30" as="geometry" />
        </mxCell>
        <mxCell id="VRKLeIG8ugABWQ9SR3Oq-8" value="" style="ellipse;whiteSpace=wrap;html=1;aspect=fixed;fillColor=none;" parent="1" vertex="1">
          <mxGeometry x="200" y="80" width="10" height="10" as="geometry" />
        </mxCell>
        <mxCell id="VRKLeIG8ugABWQ9SR3Oq-9" value="" style="endArrow=none;html=1;rounded=0;exitX=0.5;exitY=0;exitDx=0;exitDy=0;entryX=0.5;entryY=1;entryDx=0;entryDy=0;" parent="1" source="ZGm1ggxYHmSDCsutLMKt-1" target="VRKLeIG8ugABWQ9SR3Oq-8" edge="1">
          <mxGeometry width="50" height="50" relative="1" as="geometry">
            <mxPoint x="370" y="150" as="sourcePoint" />
            <mxPoint x="420" y="90" as="targetPoint" />
          </mxGeometry>
        </mxCell>
        <mxCell id="VRKLeIG8ugABWQ9SR3Oq-10" value="&lt;font style=&quot;font-size: 14px;&quot;&gt;created_at&lt;/font&gt;" style="text;html=1;align=center;verticalAlign=middle;resizable=0;points=[];autosize=1;strokeColor=none;fillColor=none;" parent="1" vertex="1">
          <mxGeometry x="160" y="50" width="90" height="30" as="geometry" />
        </mxCell>
        <mxCell id="VRKLeIG8ugABWQ9SR3Oq-11" value="&lt;font style=&quot;font-size: 14px;&quot;&gt;user_profile&lt;/font&gt;" style="rounded=1;whiteSpace=wrap;html=1;" parent="1" vertex="1">
          <mxGeometry x="640" y="120" width="120" height="80" as="geometry" />
        </mxCell>
        <mxCell id="VRKLeIG8ugABWQ9SR3Oq-12" value="" style="ellipse;whiteSpace=wrap;html=1;aspect=fixed;fillColor=#330000;" parent="1" vertex="1">
          <mxGeometry x="695" y="70" width="10" height="10" as="geometry" />
        </mxCell>
        <mxCell id="VRKLeIG8ugABWQ9SR3Oq-13" value="" style="endArrow=none;html=1;rounded=0;exitX=0.5;exitY=0;exitDx=0;exitDy=0;entryX=0.5;entryY=1;entryDx=0;entryDy=0;" parent="1" source="VRKLeIG8ugABWQ9SR3Oq-11" target="VRKLeIG8ugABWQ9SR3Oq-12" edge="1">
          <mxGeometry width="50" height="50" relative="1" as="geometry">
            <mxPoint x="180" y="160" as="sourcePoint" />
            <mxPoint x="230" y="100" as="targetPoint" />
          </mxGeometry>
        </mxCell>
        <mxCell id="jNSAUWjA78Uh-IzeO6Tz-1" value="&lt;font style=&quot;font-size: 14px;&quot;&gt;profile_id&lt;/font&gt;" style="text;html=1;align=center;verticalAlign=middle;resizable=0;points=[];autosize=1;strokeColor=none;fillColor=none;" parent="1" vertex="1">
          <mxGeometry x="660" y="40" width="80" height="30" as="geometry" />
        </mxCell>
        <mxCell id="jNSAUWjA78Uh-IzeO6Tz-2" value="" style="ellipse;whiteSpace=wrap;html=1;aspect=fixed;fillColor=none;" parent="1" vertex="1">
          <mxGeometry x="630" y="30" width="10" height="10" as="geometry" />
        </mxCell>
        <mxCell id="jNSAUWjA78Uh-IzeO6Tz-3" value="" style="endArrow=none;html=1;rounded=0;exitX=0.5;exitY=0;exitDx=0;exitDy=0;entryX=0.5;entryY=1;entryDx=0;entryDy=0;" parent="1" source="VRKLeIG8ugABWQ9SR3Oq-11" target="jNSAUWjA78Uh-IzeO6Tz-2" edge="1">
          <mxGeometry width="50" height="50" relative="1" as="geometry">
            <mxPoint x="190" y="170" as="sourcePoint" />
            <mxPoint x="240" y="110" as="targetPoint" />
          </mxGeometry>
        </mxCell>
        <mxCell id="jNSAUWjA78Uh-IzeO6Tz-4" value="&lt;font style=&quot;font-size: 14px;&quot;&gt;email&lt;/font&gt;" style="text;html=1;align=center;verticalAlign=middle;resizable=0;points=[];autosize=1;strokeColor=none;fillColor=none;" parent="1" vertex="1">
          <mxGeometry x="605" width="60" height="30" as="geometry" />
        </mxCell>
        <mxCell id="O1kzrnMG3NnmWMm4jrVp-1" value="" style="ellipse;whiteSpace=wrap;html=1;aspect=fixed;fillColor=none;" parent="1" vertex="1">
          <mxGeometry x="760" y="30" width="10" height="10" as="geometry" />
        </mxCell>
        <mxCell id="O1kzrnMG3NnmWMm4jrVp-2" value="" style="endArrow=none;html=1;rounded=0;exitX=0.5;exitY=0;exitDx=0;exitDy=0;entryX=0.5;entryY=1;entryDx=0;entryDy=0;" parent="1" source="VRKLeIG8ugABWQ9SR3Oq-11" target="O1kzrnMG3NnmWMm4jrVp-1" edge="1">
          <mxGeometry width="50" height="50" relative="1" as="geometry">
            <mxPoint x="200" y="180" as="sourcePoint" />
            <mxPoint x="250" y="120" as="targetPoint" />
          </mxGeometry>
        </mxCell>
        <mxCell id="O1kzrnMG3NnmWMm4jrVp-3" value="&lt;font style=&quot;font-size: 14px;&quot;&gt;username&lt;/font&gt;" style="text;html=1;align=center;verticalAlign=middle;resizable=0;points=[];autosize=1;strokeColor=none;fillColor=none;" parent="1" vertex="1">
          <mxGeometry x="720" width="90" height="30" as="geometry" />
        </mxCell>
        <mxCell id="O1kzrnMG3NnmWMm4jrVp-4" value="" style="ellipse;whiteSpace=wrap;html=1;aspect=fixed;fillColor=none;" parent="1" vertex="1">
          <mxGeometry x="570" y="30" width="10" height="10" as="geometry" />
        </mxCell>
        <mxCell id="O1kzrnMG3NnmWMm4jrVp-5" value="" style="endArrow=none;html=1;rounded=0;exitX=0.5;exitY=0;exitDx=0;exitDy=0;entryX=0.5;entryY=1;entryDx=0;entryDy=0;" parent="1" source="VRKLeIG8ugABWQ9SR3Oq-11" target="O1kzrnMG3NnmWMm4jrVp-4" edge="1">
          <mxGeometry width="50" height="50" relative="1" as="geometry">
            <mxPoint x="210" y="190" as="sourcePoint" />
            <mxPoint x="260" y="130" as="targetPoint" />
          </mxGeometry>
        </mxCell>
        <mxCell id="O1kzrnMG3NnmWMm4jrVp-6" value="&lt;font style=&quot;font-size: 14px;&quot;&gt;image&lt;/font&gt;" style="text;html=1;align=center;verticalAlign=middle;resizable=0;points=[];autosize=1;strokeColor=none;fillColor=none;" parent="1" vertex="1">
          <mxGeometry x="545" width="60" height="30" as="geometry" />
        </mxCell>
        <mxCell id="wn9buxGfSU3uCtFChxqr-1" value="" style="ellipse;whiteSpace=wrap;html=1;aspect=fixed;fillColor=none;" parent="1" vertex="1">
          <mxGeometry x="830" y="30" width="10" height="10" as="geometry" />
        </mxCell>
        <mxCell id="wn9buxGfSU3uCtFChxqr-2" value="" style="endArrow=none;html=1;rounded=0;exitX=0.5;exitY=0;exitDx=0;exitDy=0;entryX=0.5;entryY=1;entryDx=0;entryDy=0;" parent="1" source="VRKLeIG8ugABWQ9SR3Oq-11" target="wn9buxGfSU3uCtFChxqr-1" edge="1">
          <mxGeometry width="50" height="50" relative="1" as="geometry">
            <mxPoint x="220" y="200" as="sourcePoint" />
            <mxPoint x="270" y="140" as="targetPoint" />
          </mxGeometry>
        </mxCell>
        <mxCell id="Co2FRgnHO1OY7MckGPLb-1" value="&lt;font style=&quot;font-size: 14px;&quot;&gt;x_link&lt;/font&gt;" style="text;html=1;align=center;verticalAlign=middle;resizable=0;points=[];autosize=1;strokeColor=none;fillColor=none;" parent="1" vertex="1">
          <mxGeometry x="810" width="60" height="30" as="geometry" />
        </mxCell>
        <mxCell id="Co2FRgnHO1OY7MckGPLb-2" value="" style="ellipse;whiteSpace=wrap;html=1;aspect=fixed;fillColor=none;" parent="1" vertex="1">
          <mxGeometry x="890" y="30" width="10" height="10" as="geometry" />
        </mxCell>
        <mxCell id="Co2FRgnHO1OY7MckGPLb-3" value="" style="endArrow=none;html=1;rounded=0;exitX=0.5;exitY=0;exitDx=0;exitDy=0;entryX=0.5;entryY=1;entryDx=0;entryDy=0;" parent="1" source="VRKLeIG8ugABWQ9SR3Oq-11" target="Co2FRgnHO1OY7MckGPLb-2" edge="1">
          <mxGeometry width="50" height="50" relative="1" as="geometry">
            <mxPoint x="230" y="210" as="sourcePoint" />
            <mxPoint x="280" y="150" as="targetPoint" />
          </mxGeometry>
        </mxCell>
        <mxCell id="Co2FRgnHO1OY7MckGPLb-4" value="&lt;font style=&quot;font-size: 14px;&quot;&gt;instagram_link&lt;/font&gt;" style="text;html=1;align=center;verticalAlign=middle;resizable=0;points=[];autosize=1;strokeColor=none;fillColor=none;" parent="1" vertex="1">
          <mxGeometry x="860" width="110" height="30" as="geometry" />
        </mxCell>
        <mxCell id="Co2FRgnHO1OY7MckGPLb-5" value="" style="ellipse;whiteSpace=wrap;html=1;aspect=fixed;fillColor=none;" parent="1" vertex="1">
          <mxGeometry x="890" y="80" width="10" height="10" as="geometry" />
        </mxCell>
        <mxCell id="Co2FRgnHO1OY7MckGPLb-6" value="" style="endArrow=none;html=1;rounded=0;exitX=0.5;exitY=0;exitDx=0;exitDy=0;entryX=0.5;entryY=1;entryDx=0;entryDy=0;" parent="1" source="VRKLeIG8ugABWQ9SR3Oq-11" target="Co2FRgnHO1OY7MckGPLb-5" edge="1">
          <mxGeometry width="50" height="50" relative="1" as="geometry">
            <mxPoint x="240" y="220" as="sourcePoint" />
            <mxPoint x="290" y="160" as="targetPoint" />
          </mxGeometry>
        </mxCell>
        <mxCell id="Co2FRgnHO1OY7MckGPLb-8" value="&lt;font style=&quot;font-size: 14px;&quot;&gt;artstation_link&lt;/font&gt;" style="text;html=1;align=center;verticalAlign=middle;resizable=0;points=[];autosize=1;strokeColor=none;fillColor=none;" parent="1" vertex="1">
          <mxGeometry x="850" y="50" width="110" height="30" as="geometry" />
        </mxCell>
        <mxCell id="Co2FRgnHO1OY7MckGPLb-9" value="&lt;font style=&quot;font-size: 14px;&quot;&gt;has&lt;/font&gt;" style="rhombus;whiteSpace=wrap;html=1;" parent="1" vertex="1">
          <mxGeometry x="480" y="120" width="80" height="80" as="geometry" />
        </mxCell>
        <mxCell id="Co2FRgnHO1OY7MckGPLb-10" value="" style="endArrow=none;html=1;rounded=0;exitX=1;exitY=0.5;exitDx=0;exitDy=0;entryX=0;entryY=0.5;entryDx=0;entryDy=0;" parent="1" source="ZGm1ggxYHmSDCsutLMKt-1" target="Co2FRgnHO1OY7MckGPLb-9" edge="1">
          <mxGeometry width="50" height="50" relative="1" as="geometry">
            <mxPoint x="520" y="200" as="sourcePoint" />
            <mxPoint x="570" y="150" as="targetPoint" />
          </mxGeometry>
        </mxCell>
        <mxCell id="Co2FRgnHO1OY7MckGPLb-11" value="" style="endArrow=none;html=1;rounded=0;exitX=1;exitY=0.5;exitDx=0;exitDy=0;entryX=0;entryY=0.5;entryDx=0;entryDy=0;" parent="1" source="Co2FRgnHO1OY7MckGPLb-9" target="VRKLeIG8ugABWQ9SR3Oq-11" edge="1">
          <mxGeometry width="50" height="50" relative="1" as="geometry">
            <mxPoint x="210" y="170" as="sourcePoint" />
            <mxPoint x="390" y="170" as="targetPoint" />
          </mxGeometry>
        </mxCell>
        <mxCell id="Vn2-HFJhVa9565OIsPlc-3" value="&lt;font style=&quot;font-size: 14px;&quot;&gt;user_type&lt;/font&gt;" style="rounded=1;whiteSpace=wrap;html=1;" parent="1" vertex="1">
          <mxGeometry x="1075" y="120" width="120" height="80" as="geometry" />
        </mxCell>
        <mxCell id="Vn2-HFJhVa9565OIsPlc-4" value="" style="ellipse;whiteSpace=wrap;html=1;aspect=fixed;fillColor=#330000;" parent="1" vertex="1">
          <mxGeometry x="1130" y="70" width="10" height="10" as="geometry" />
        </mxCell>
        <mxCell id="Vn2-HFJhVa9565OIsPlc-5" value="" style="endArrow=none;html=1;rounded=0;exitX=0.5;exitY=0;exitDx=0;exitDy=0;entryX=0.5;entryY=1;entryDx=0;entryDy=0;" parent="1" source="Vn2-HFJhVa9565OIsPlc-3" target="Vn2-HFJhVa9565OIsPlc-4" edge="1">
          <mxGeometry width="50" height="50" relative="1" as="geometry">
            <mxPoint x="1145" y="-150" as="sourcePoint" />
            <mxPoint x="1195" y="-210" as="targetPoint" />
          </mxGeometry>
        </mxCell>
        <mxCell id="jG1VQmQE8rD3GQMA7qIZ-1" value="&lt;font style=&quot;font-size: 14px;&quot;&gt;type_id&lt;/font&gt;" style="text;html=1;align=center;verticalAlign=middle;resizable=0;points=[];autosize=1;strokeColor=none;fillColor=none;" parent="1" vertex="1">
          <mxGeometry x="1100" y="40" width="70" height="30" as="geometry" />
        </mxCell>
        <mxCell id="jG1VQmQE8rD3GQMA7qIZ-2" value="" style="ellipse;whiteSpace=wrap;html=1;aspect=fixed;fillColor=none;" parent="1" vertex="1">
          <mxGeometry x="1185" y="40" width="10" height="10" as="geometry" />
        </mxCell>
        <mxCell id="jG1VQmQE8rD3GQMA7qIZ-3" value="" style="endArrow=none;html=1;rounded=0;exitX=0.5;exitY=0;exitDx=0;exitDy=0;entryX=0.5;entryY=1;entryDx=0;entryDy=0;" parent="1" source="Vn2-HFJhVa9565OIsPlc-3" target="jG1VQmQE8rD3GQMA7qIZ-2" edge="1">
          <mxGeometry width="50" height="50" relative="1" as="geometry">
            <mxPoint x="1155" y="-140" as="sourcePoint" />
            <mxPoint x="1205" y="-200" as="targetPoint" />
          </mxGeometry>
        </mxCell>
        <mxCell id="jG1VQmQE8rD3GQMA7qIZ-4" value="&lt;font style=&quot;font-size: 14px;&quot;&gt;type_name&lt;/font&gt;" style="text;html=1;align=center;verticalAlign=middle;resizable=0;points=[];autosize=1;strokeColor=none;fillColor=none;" parent="1" vertex="1">
          <mxGeometry x="1155" y="8" width="90" height="30" as="geometry" />
        </mxCell>
        <mxCell id="XnTcNgatLCLmWDYaaYdb-1" value="" style="ellipse;whiteSpace=wrap;html=1;aspect=fixed;fillColor=none;" parent="1" vertex="1">
          <mxGeometry x="1070" y="40" width="10" height="10" as="geometry" />
        </mxCell>
        <mxCell id="XnTcNgatLCLmWDYaaYdb-2" value="" style="endArrow=none;html=1;rounded=0;exitX=0.5;exitY=0;exitDx=0;exitDy=0;entryX=0.5;entryY=1;entryDx=0;entryDy=0;" parent="1" source="Vn2-HFJhVa9565OIsPlc-3" target="XnTcNgatLCLmWDYaaYdb-1" edge="1">
          <mxGeometry width="50" height="50" relative="1" as="geometry">
            <mxPoint x="1165" y="-130" as="sourcePoint" />
            <mxPoint x="1215" y="-190" as="targetPoint" />
          </mxGeometry>
        </mxCell>
        <mxCell id="sqaFlJAEgczojTSFqYuy-1" value="&lt;font style=&quot;font-size: 14px;&quot;&gt;max_image_quality&lt;/font&gt;" style="text;html=1;align=center;verticalAlign=middle;resizable=0;points=[];autosize=1;strokeColor=none;fillColor=none;" parent="1" vertex="1">
          <mxGeometry x="1000" y="10" width="140" height="30" as="geometry" />
        </mxCell>
        <mxCell id="41Sh8zpKekmrxN9gXfHa-1" value="" style="ellipse;whiteSpace=wrap;html=1;aspect=fixed;fillColor=none;" parent="1" vertex="1">
          <mxGeometry x="1245" y="70" width="10" height="10" as="geometry" />
        </mxCell>
        <mxCell id="41Sh8zpKekmrxN9gXfHa-2" value="" style="endArrow=none;html=1;rounded=0;exitX=0.5;exitY=0;exitDx=0;exitDy=0;entryX=0.5;entryY=1;entryDx=0;entryDy=0;" parent="1" source="Vn2-HFJhVa9565OIsPlc-3" target="41Sh8zpKekmrxN9gXfHa-1" edge="1">
          <mxGeometry width="50" height="50" relative="1" as="geometry">
            <mxPoint x="1175" y="-120" as="sourcePoint" />
            <mxPoint x="1225" y="-180" as="targetPoint" />
          </mxGeometry>
        </mxCell>
        <mxCell id="Epd_vyE4pRd4uPobKqxy-2" value="&lt;font style=&quot;font-size: 14px;&quot;&gt;max_image_size&lt;/font&gt;" style="text;html=1;align=center;verticalAlign=middle;resizable=0;points=[];autosize=1;strokeColor=none;fillColor=none;" parent="1" vertex="1">
          <mxGeometry x="1205" y="40" width="130" height="30" as="geometry" />
        </mxCell>
        <mxCell id="1Qs2sn23ZKEIklvEy9ie-1" value="&lt;font style=&quot;font-size: 14px;&quot;&gt;has&lt;/font&gt;" style="rhombus;whiteSpace=wrap;html=1;" parent="1" vertex="1">
          <mxGeometry x="890" y="120" width="80" height="80" as="geometry" />
        </mxCell>
        <mxCell id="oSEVFMuT9jHWxDa-9F0y-3" value="" style="endArrow=none;html=1;rounded=0;exitX=1;exitY=0.5;exitDx=0;exitDy=0;entryX=0;entryY=0.5;entryDx=0;entryDy=0;" edge="1" parent="1" source="VRKLeIG8ugABWQ9SR3Oq-11" target="1Qs2sn23ZKEIklvEy9ie-1">
          <mxGeometry width="50" height="50" relative="1" as="geometry">
            <mxPoint x="870" y="330" as="sourcePoint" />
            <mxPoint x="920" y="280" as="targetPoint" />
          </mxGeometry>
        </mxCell>
        <mxCell id="oSEVFMuT9jHWxDa-9F0y-4" value="" style="endArrow=none;html=1;rounded=0;exitX=1;exitY=0.5;exitDx=0;exitDy=0;entryX=0;entryY=0.5;entryDx=0;entryDy=0;" edge="1" parent="1" source="1Qs2sn23ZKEIklvEy9ie-1" target="Vn2-HFJhVa9565OIsPlc-3">
          <mxGeometry width="50" height="50" relative="1" as="geometry">
            <mxPoint x="770" y="170" as="sourcePoint" />
            <mxPoint x="900" y="170" as="targetPoint" />
          </mxGeometry>
        </mxCell>
        <mxCell id="oSEVFMuT9jHWxDa-9F0y-5" value="&lt;font style=&quot;font-size: 14px;&quot;&gt;1&lt;/font&gt;" style="text;html=1;align=center;verticalAlign=middle;resizable=0;points=[];autosize=1;strokeColor=none;fillColor=none;" vertex="1" parent="1">
          <mxGeometry x="865" y="128" width="30" height="30" as="geometry" />
        </mxCell>
        <mxCell id="oSEVFMuT9jHWxDa-9F0y-6" value="&lt;font style=&quot;font-size: 14px;&quot;&gt;1&lt;/font&gt;" style="text;html=1;align=center;verticalAlign=middle;resizable=0;points=[];autosize=1;strokeColor=none;fillColor=none;" vertex="1" parent="1">
          <mxGeometry x="955" y="128" width="30" height="30" as="geometry" />
        </mxCell>
        <mxCell id="oSEVFMuT9jHWxDa-9F0y-8" value="&lt;font style=&quot;font-size: 14px;&quot;&gt;1&lt;/font&gt;" style="text;html=1;align=center;verticalAlign=middle;resizable=0;points=[];autosize=1;strokeColor=none;fillColor=none;" vertex="1" parent="1">
          <mxGeometry x="455" y="128" width="30" height="30" as="geometry" />
        </mxCell>
        <mxCell id="oSEVFMuT9jHWxDa-9F0y-9" value="&lt;font style=&quot;font-size: 14px;&quot;&gt;1&lt;/font&gt;" style="text;html=1;align=center;verticalAlign=middle;resizable=0;points=[];autosize=1;strokeColor=none;fillColor=none;" vertex="1" parent="1">
          <mxGeometry x="545" y="128" width="30" height="30" as="geometry" />
        </mxCell>
        <mxCell id="oSEVFMuT9jHWxDa-9F0y-10" value="&lt;font style=&quot;font-size: 14px;&quot;&gt;Post&lt;/font&gt;" style="rounded=1;whiteSpace=wrap;html=1;" vertex="1" parent="1">
          <mxGeometry x="640" y="478" width="120" height="80" as="geometry" />
        </mxCell>
        <mxCell id="6Rr7RQNspQ6VLIhuuNem-1" value="" style="endArrow=none;html=1;rounded=0;exitX=0.5;exitY=0;exitDx=0;exitDy=0;entryX=0.5;entryY=1;entryDx=0;entryDy=0;" edge="1" parent="1" source="Co2FRgnHO1OY7MckGPLb-9" target="6Rr7RQNspQ6VLIhuuNem-6">
          <mxGeometry width="50" height="50" relative="1" as="geometry">
            <mxPoint x="590" y="270" as="sourcePoint" />
            <mxPoint x="530" y="100" as="targetPoint" />
          </mxGeometry>
        </mxCell>
        <mxCell id="6Rr7RQNspQ6VLIhuuNem-6" value="" style="ellipse;whiteSpace=wrap;html=1;aspect=fixed;" vertex="1" parent="1">
          <mxGeometry x="530" y="100" width="10" height="10" as="geometry" />
        </mxCell>
        <mxCell id="6Rr7RQNspQ6VLIhuuNem-7" value="&lt;font style=&quot;font-size: 14px;&quot;&gt;user_id&lt;/font&gt;" style="text;html=1;align=center;verticalAlign=middle;resizable=0;points=[];autosize=1;strokeColor=none;fillColor=none;" vertex="1" parent="1">
          <mxGeometry x="500" y="70" width="70" height="30" as="geometry" />
        </mxCell>
        <mxCell id="fs1XwqstNSqWFMW9ZWEI-1" value="" style="endArrow=none;html=1;rounded=0;exitX=0.5;exitY=0;exitDx=0;exitDy=0;entryX=0.5;entryY=1;entryDx=0;entryDy=0;" edge="1" parent="1" source="1Qs2sn23ZKEIklvEy9ie-1" target="fs1XwqstNSqWFMW9ZWEI-2">
          <mxGeometry width="50" height="50" relative="1" as="geometry">
            <mxPoint x="800" y="270" as="sourcePoint" />
            <mxPoint x="970" y="110" as="targetPoint" />
          </mxGeometry>
        </mxCell>
        <mxCell id="fs1XwqstNSqWFMW9ZWEI-2" value="" style="ellipse;whiteSpace=wrap;html=1;aspect=fixed;" vertex="1" parent="1">
          <mxGeometry x="975" y="100" width="10" height="10" as="geometry" />
        </mxCell>
        <mxCell id="fs1XwqstNSqWFMW9ZWEI-3" value="&lt;font style=&quot;font-size: 14px;&quot;&gt;type_id&lt;/font&gt;" style="text;html=1;align=center;verticalAlign=middle;resizable=0;points=[];autosize=1;strokeColor=none;fillColor=none;" vertex="1" parent="1">
          <mxGeometry x="945" y="70" width="70" height="30" as="geometry" />
        </mxCell>
        <mxCell id="fs1XwqstNSqWFMW9ZWEI-4" value="" style="endArrow=none;html=1;rounded=0;exitX=0.5;exitY=0;exitDx=0;exitDy=0;" edge="1" parent="1" source="oSEVFMuT9jHWxDa-9F0y-10" target="fs1XwqstNSqWFMW9ZWEI-6">
          <mxGeometry width="50" height="50" relative="1" as="geometry">
            <mxPoint x="1000" y="338" as="sourcePoint" />
            <mxPoint x="700" y="408" as="targetPoint" />
          </mxGeometry>
        </mxCell>
        <mxCell id="fs1XwqstNSqWFMW9ZWEI-6" value="" style="ellipse;whiteSpace=wrap;html=1;aspect=fixed;fillColor=#330000;" vertex="1" parent="1">
          <mxGeometry x="695" y="418" width="10" height="10" as="geometry" />
        </mxCell>
        <mxCell id="fs1XwqstNSqWFMW9ZWEI-33" value="" style="edgeStyle=orthogonalEdgeStyle;rounded=0;orthogonalLoop=1;jettySize=auto;html=1;" edge="1" parent="1" source="fs1XwqstNSqWFMW9ZWEI-7" target="oSEVFMuT9jHWxDa-9F0y-10">
          <mxGeometry relative="1" as="geometry" />
        </mxCell>
        <mxCell id="fs1XwqstNSqWFMW9ZWEI-7" value="&lt;font style=&quot;font-size: 14px;&quot;&gt;post_id&lt;/font&gt;" style="text;html=1;align=center;verticalAlign=middle;whiteSpace=wrap;rounded=0;" vertex="1" parent="1">
          <mxGeometry x="670" y="388" width="60" height="30" as="geometry" />
        </mxCell>
        <mxCell id="fs1XwqstNSqWFMW9ZWEI-8" value="" style="endArrow=none;html=1;rounded=0;exitX=0.5;exitY=0;exitDx=0;exitDy=0;" edge="1" parent="1" source="oSEVFMuT9jHWxDa-9F0y-10" target="fs1XwqstNSqWFMW9ZWEI-9">
          <mxGeometry width="50" height="50" relative="1" as="geometry">
            <mxPoint x="1000" y="338" as="sourcePoint" />
            <mxPoint x="780" y="438" as="targetPoint" />
          </mxGeometry>
        </mxCell>
        <mxCell id="fs1XwqstNSqWFMW9ZWEI-9" value="" style="ellipse;whiteSpace=wrap;html=1;aspect=fixed;" vertex="1" parent="1">
          <mxGeometry x="750" y="438" width="10" height="10" as="geometry" />
        </mxCell>
        <mxCell id="fs1XwqstNSqWFMW9ZWEI-10" value="&lt;font style=&quot;font-size: 14px;&quot;&gt;content&lt;/font&gt;" style="text;html=1;align=center;verticalAlign=middle;resizable=0;points=[];autosize=1;strokeColor=none;fillColor=none;" vertex="1" parent="1">
          <mxGeometry x="725" y="408" width="70" height="30" as="geometry" />
        </mxCell>
        <mxCell id="fs1XwqstNSqWFMW9ZWEI-11" value="" style="endArrow=none;html=1;rounded=0;exitX=0.5;exitY=0;exitDx=0;exitDy=0;" edge="1" parent="1" source="oSEVFMuT9jHWxDa-9F0y-10" target="fs1XwqstNSqWFMW9ZWEI-12">
          <mxGeometry width="50" height="50" relative="1" as="geometry">
            <mxPoint x="1000" y="338" as="sourcePoint" />
            <mxPoint x="630" y="438" as="targetPoint" />
          </mxGeometry>
        </mxCell>
        <mxCell id="fs1XwqstNSqWFMW9ZWEI-12" value="" style="ellipse;whiteSpace=wrap;html=1;aspect=fixed;" vertex="1" parent="1">
          <mxGeometry x="630" y="438" width="10" height="10" as="geometry" />
        </mxCell>
        <mxCell id="fs1XwqstNSqWFMW9ZWEI-13" value="&lt;font style=&quot;font-size: 14px;&quot;&gt;published_at&lt;/font&gt;" style="text;html=1;align=center;verticalAlign=middle;resizable=0;points=[];autosize=1;strokeColor=none;fillColor=none;" vertex="1" parent="1">
          <mxGeometry x="580" y="408" width="100" height="30" as="geometry" />
        </mxCell>
        <mxCell id="fs1XwqstNSqWFMW9ZWEI-14" value="&lt;font style=&quot;font-size: 14px;&quot;&gt;Like&lt;/font&gt;" style="rounded=1;whiteSpace=wrap;html=1;" vertex="1" parent="1">
          <mxGeometry x="1000" y="360" width="120" height="80" as="geometry" />
        </mxCell>
        <mxCell id="fs1XwqstNSqWFMW9ZWEI-15" value="" style="endArrow=none;html=1;rounded=0;exitX=0.5;exitY=0;exitDx=0;exitDy=0;" edge="1" parent="1" source="fs1XwqstNSqWFMW9ZWEI-14" target="fs1XwqstNSqWFMW9ZWEI-16">
          <mxGeometry width="50" height="50" relative="1" as="geometry">
            <mxPoint x="1000" y="220" as="sourcePoint" />
            <mxPoint x="1060" y="320" as="targetPoint" />
          </mxGeometry>
        </mxCell>
        <mxCell id="fs1XwqstNSqWFMW9ZWEI-16" value="" style="ellipse;whiteSpace=wrap;html=1;aspect=fixed;fillColor=#330000;" vertex="1" parent="1">
          <mxGeometry x="1055" y="300" width="10" height="10" as="geometry" />
        </mxCell>
        <mxCell id="fs1XwqstNSqWFMW9ZWEI-17" value="&lt;font style=&quot;font-size: 14px;&quot;&gt;like_id&lt;/font&gt;" style="text;html=1;align=center;verticalAlign=middle;whiteSpace=wrap;rounded=0;" vertex="1" parent="1">
          <mxGeometry x="1030" y="270" width="60" height="30" as="geometry" />
        </mxCell>
        <mxCell id="fs1XwqstNSqWFMW9ZWEI-18" value="" style="endArrow=none;html=1;rounded=0;exitX=0.5;exitY=0;exitDx=0;exitDy=0;" edge="1" parent="1" source="fs1XwqstNSqWFMW9ZWEI-14" target="fs1XwqstNSqWFMW9ZWEI-19">
          <mxGeometry width="50" height="50" relative="1" as="geometry">
            <mxPoint x="1000" y="220" as="sourcePoint" />
            <mxPoint x="1120" y="330" as="targetPoint" />
          </mxGeometry>
        </mxCell>
        <mxCell id="fs1XwqstNSqWFMW9ZWEI-19" value="" style="ellipse;whiteSpace=wrap;html=1;aspect=fixed;" vertex="1" parent="1">
          <mxGeometry x="1120" y="330" width="10" height="10" as="geometry" />
        </mxCell>
        <mxCell id="fs1XwqstNSqWFMW9ZWEI-20" value="&lt;font style=&quot;font-size: 14px;&quot;&gt;timestamp&lt;/font&gt;" style="text;html=1;align=center;verticalAlign=middle;resizable=0;points=[];autosize=1;strokeColor=none;fillColor=none;" vertex="1" parent="1">
          <mxGeometry x="1080" y="300" width="90" height="30" as="geometry" />
        </mxCell>
        <mxCell id="fs1XwqstNSqWFMW9ZWEI-22" value="&lt;font style=&quot;font-size: 14px;&quot;&gt;Comment&lt;/font&gt;" style="rounded=1;whiteSpace=wrap;html=1;" vertex="1" parent="1">
          <mxGeometry x="1000" y="640" width="120" height="80" as="geometry" />
        </mxCell>
        <mxCell id="fs1XwqstNSqWFMW9ZWEI-23" value="" style="endArrow=none;html=1;rounded=0;exitX=0.5;exitY=0;exitDx=0;exitDy=0;" edge="1" parent="1" source="fs1XwqstNSqWFMW9ZWEI-22" target="fs1XwqstNSqWFMW9ZWEI-25">
          <mxGeometry width="50" height="50" relative="1" as="geometry">
            <mxPoint x="770" y="480" as="sourcePoint" />
            <mxPoint x="1060" y="600" as="targetPoint" />
          </mxGeometry>
        </mxCell>
        <mxCell id="fs1XwqstNSqWFMW9ZWEI-25" value="" style="ellipse;whiteSpace=wrap;html=1;aspect=fixed;fillColor=#330000;" vertex="1" parent="1">
          <mxGeometry x="1056.25" y="590" width="7.5" height="7.5" as="geometry" />
        </mxCell>
        <mxCell id="fs1XwqstNSqWFMW9ZWEI-26" value="&lt;font style=&quot;font-size: 14px;&quot;&gt;comment_id&lt;/font&gt;" style="text;html=1;align=center;verticalAlign=middle;resizable=0;points=[];autosize=1;strokeColor=none;fillColor=none;" vertex="1" parent="1">
          <mxGeometry x="1010" y="558" width="100" height="30" as="geometry" />
        </mxCell>
        <mxCell id="fs1XwqstNSqWFMW9ZWEI-27" value="" style="endArrow=none;html=1;rounded=0;exitX=0.5;exitY=0;exitDx=0;exitDy=0;" edge="1" parent="1" source="fs1XwqstNSqWFMW9ZWEI-22" target="fs1XwqstNSqWFMW9ZWEI-28">
          <mxGeometry width="50" height="50" relative="1" as="geometry">
            <mxPoint x="770" y="480" as="sourcePoint" />
            <mxPoint x="1130" y="620" as="targetPoint" />
          </mxGeometry>
        </mxCell>
        <mxCell id="fs1XwqstNSqWFMW9ZWEI-28" value="" style="ellipse;whiteSpace=wrap;html=1;aspect=fixed;" vertex="1" parent="1">
          <mxGeometry x="1130" y="610" width="10" height="10" as="geometry" />
        </mxCell>
        <mxCell id="fs1XwqstNSqWFMW9ZWEI-29" value="&lt;font style=&quot;font-size: 14px;&quot;&gt;content&lt;/font&gt;" style="text;html=1;align=center;verticalAlign=middle;resizable=0;points=[];autosize=1;strokeColor=none;fillColor=none;" vertex="1" parent="1">
          <mxGeometry x="1100" y="580" width="70" height="30" as="geometry" />
        </mxCell>
        <mxCell id="fs1XwqstNSqWFMW9ZWEI-30" value="&lt;font style=&quot;font-size: 14px;&quot;&gt;have&lt;/font&gt;" style="rhombus;whiteSpace=wrap;html=1;" vertex="1" parent="1">
          <mxGeometry x="840" y="360" width="80" height="80" as="geometry" />
        </mxCell>
        <mxCell id="fs1XwqstNSqWFMW9ZWEI-31" value="&lt;font style=&quot;font-size: 14px;&quot;&gt;have&lt;/font&gt;" style="rhombus;whiteSpace=wrap;html=1;" vertex="1" parent="1">
          <mxGeometry x="840" y="640" width="80" height="80" as="geometry" />
        </mxCell>
        <mxCell id="fs1XwqstNSqWFMW9ZWEI-32" value="" style="endArrow=none;html=1;rounded=0;exitX=1;exitY=0.5;exitDx=0;exitDy=0;entryX=0.5;entryY=1;entryDx=0;entryDy=0;" edge="1" parent="1" source="oSEVFMuT9jHWxDa-9F0y-10" target="fs1XwqstNSqWFMW9ZWEI-30">
          <mxGeometry width="50" height="50" relative="1" as="geometry">
            <mxPoint x="815" y="528" as="sourcePoint" />
            <mxPoint x="920" y="470" as="targetPoint" />
            <Array as="points">
              <mxPoint x="880" y="518" />
            </Array>
          </mxGeometry>
        </mxCell>
        <mxCell id="fs1XwqstNSqWFMW9ZWEI-37" value="" style="endArrow=none;html=1;rounded=0;exitX=1;exitY=0.5;exitDx=0;exitDy=0;entryX=0;entryY=0.5;entryDx=0;entryDy=0;" edge="1" parent="1" source="fs1XwqstNSqWFMW9ZWEI-30" target="fs1XwqstNSqWFMW9ZWEI-14">
          <mxGeometry width="50" height="50" relative="1" as="geometry">
            <mxPoint x="935" y="528" as="sourcePoint" />
            <mxPoint x="985" y="478" as="targetPoint" />
          </mxGeometry>
        </mxCell>
        <mxCell id="fs1XwqstNSqWFMW9ZWEI-38" value="" style="endArrow=none;html=1;rounded=0;entryX=1;entryY=0.5;entryDx=0;entryDy=0;" edge="1" parent="1" source="fs1XwqstNSqWFMW9ZWEI-31" target="oSEVFMuT9jHWxDa-9F0y-10">
          <mxGeometry width="50" height="50" relative="1" as="geometry">
            <mxPoint x="840" y="615" as="sourcePoint" />
            <mxPoint x="890" y="565" as="targetPoint" />
            <Array as="points">
              <mxPoint x="880" y="518" />
            </Array>
          </mxGeometry>
        </mxCell>
        <mxCell id="fs1XwqstNSqWFMW9ZWEI-39" value="" style="endArrow=none;html=1;rounded=0;exitX=1;exitY=0.5;exitDx=0;exitDy=0;entryX=0;entryY=0.5;entryDx=0;entryDy=0;" edge="1" parent="1" source="fs1XwqstNSqWFMW9ZWEI-31" target="fs1XwqstNSqWFMW9ZWEI-22">
          <mxGeometry width="50" height="50" relative="1" as="geometry">
            <mxPoint x="930" y="620" as="sourcePoint" />
            <mxPoint x="980" y="570" as="targetPoint" />
          </mxGeometry>
        </mxCell>
        <mxCell id="fs1XwqstNSqWFMW9ZWEI-40" value="&lt;font style=&quot;font-size: 14px;&quot;&gt;1&lt;/font&gt;" style="text;html=1;align=center;verticalAlign=middle;resizable=0;points=[];autosize=1;strokeColor=none;fillColor=none;" vertex="1" parent="1">
          <mxGeometry x="855" y="438" width="30" height="30" as="geometry" />
        </mxCell>
        <mxCell id="fs1XwqstNSqWFMW9ZWEI-41" value="&lt;font style=&quot;font-size: 14px;&quot;&gt;n&lt;/font&gt;" style="text;html=1;align=center;verticalAlign=middle;resizable=0;points=[];autosize=1;strokeColor=none;fillColor=none;" vertex="1" parent="1">
          <mxGeometry x="905" y="368" width="30" height="30" as="geometry" />
        </mxCell>
        <mxCell id="fs1XwqstNSqWFMW9ZWEI-42" value="&lt;font style=&quot;font-size: 14px;&quot;&gt;1&lt;/font&gt;" style="text;html=1;align=center;verticalAlign=middle;resizable=0;points=[];autosize=1;strokeColor=none;fillColor=none;" vertex="1" parent="1">
          <mxGeometry x="855" y="608" width="30" height="30" as="geometry" />
        </mxCell>
        <mxCell id="fs1XwqstNSqWFMW9ZWEI-44" value="&lt;font style=&quot;font-size: 14px;&quot;&gt;n&lt;/font&gt;" style="text;html=1;align=center;verticalAlign=middle;resizable=0;points=[];autosize=1;strokeColor=none;fillColor=none;" vertex="1" parent="1">
          <mxGeometry x="905" y="648" width="30" height="30" as="geometry" />
        </mxCell>
        <mxCell id="fs1XwqstNSqWFMW9ZWEI-45" value="&lt;font style=&quot;font-size: 14px;&quot;&gt;create&lt;/font&gt;" style="rhombus;whiteSpace=wrap;html=1;" vertex="1" parent="1">
          <mxGeometry x="480" y="280" width="80" height="80" as="geometry" />
        </mxCell>
        <mxCell id="fs1XwqstNSqWFMW9ZWEI-47" value="" style="endArrow=none;html=1;rounded=0;entryX=0.5;entryY=1;entryDx=0;entryDy=0;exitX=0;exitY=0.5;exitDx=0;exitDy=0;" edge="1" parent="1" source="oSEVFMuT9jHWxDa-9F0y-10" target="fs1XwqstNSqWFMW9ZWEI-45">
          <mxGeometry width="50" height="50" relative="1" as="geometry">
            <mxPoint x="480" y="410" as="sourcePoint" />
            <mxPoint x="530" y="360" as="targetPoint" />
            <Array as="points">
              <mxPoint x="520" y="518" />
            </Array>
          </mxGeometry>
        </mxCell>
        <mxCell id="fs1XwqstNSqWFMW9ZWEI-49" value="&lt;font style=&quot;font-size: 14px;&quot;&gt;n&lt;/font&gt;" style="text;html=1;align=center;verticalAlign=middle;resizable=0;points=[];autosize=1;strokeColor=none;fillColor=none;" vertex="1" parent="1">
          <mxGeometry x="515" y="348" width="30" height="30" as="geometry" />
        </mxCell>
        <mxCell id="fs1XwqstNSqWFMW9ZWEI-50" value="" style="endArrow=none;html=1;rounded=0;exitX=1;exitY=0.5;exitDx=0;exitDy=0;" edge="1" parent="1" source="fs1XwqstNSqWFMW9ZWEI-45" target="fs1XwqstNSqWFMW9ZWEI-51">
          <mxGeometry width="50" height="50" relative="1" as="geometry">
            <mxPoint x="650" y="340" as="sourcePoint" />
            <mxPoint x="590" y="300" as="targetPoint" />
          </mxGeometry>
        </mxCell>
        <mxCell id="fs1XwqstNSqWFMW9ZWEI-51" value="" style="ellipse;whiteSpace=wrap;html=1;aspect=fixed;" vertex="1" parent="1">
          <mxGeometry x="590" y="300" width="10" height="10" as="geometry" />
        </mxCell>
        <mxCell id="fs1XwqstNSqWFMW9ZWEI-52" value="&lt;font style=&quot;font-size: 14px;&quot;&gt;user_id&lt;/font&gt;" style="text;html=1;align=center;verticalAlign=middle;resizable=0;points=[];autosize=1;strokeColor=none;fillColor=none;" vertex="1" parent="1">
          <mxGeometry x="560" y="270" width="70" height="30" as="geometry" />
        </mxCell>
        <mxCell id="fs1XwqstNSqWFMW9ZWEI-53" value="" style="endArrow=none;html=1;rounded=0;exitX=0.5;exitY=0;exitDx=0;exitDy=0;" edge="1" parent="1" source="fs1XwqstNSqWFMW9ZWEI-30" target="fs1XwqstNSqWFMW9ZWEI-54">
          <mxGeometry width="50" height="50" relative="1" as="geometry">
            <mxPoint x="820" y="400" as="sourcePoint" />
            <mxPoint x="890" y="340" as="targetPoint" />
          </mxGeometry>
        </mxCell>
        <mxCell id="fs1XwqstNSqWFMW9ZWEI-54" value="" style="ellipse;whiteSpace=wrap;html=1;aspect=fixed;" vertex="1" parent="1">
          <mxGeometry x="890" y="330" width="10" height="10" as="geometry" />
        </mxCell>
        <mxCell id="fs1XwqstNSqWFMW9ZWEI-55" value="&lt;font style=&quot;font-size: 14px;&quot;&gt;user_id&lt;/font&gt;" style="text;html=1;align=center;verticalAlign=middle;resizable=0;points=[];autosize=1;strokeColor=none;fillColor=none;" vertex="1" parent="1">
          <mxGeometry x="860" y="300" width="70" height="30" as="geometry" />
        </mxCell>
        <mxCell id="fs1XwqstNSqWFMW9ZWEI-56" value="" style="endArrow=none;html=1;rounded=0;exitX=0;exitY=0.5;exitDx=0;exitDy=0;" edge="1" parent="1" source="fs1XwqstNSqWFMW9ZWEI-31" target="fs1XwqstNSqWFMW9ZWEI-57">
          <mxGeometry width="50" height="50" relative="1" as="geometry">
            <mxPoint x="820" y="590" as="sourcePoint" />
            <mxPoint x="820" y="650" as="targetPoint" />
          </mxGeometry>
        </mxCell>
        <mxCell id="fs1XwqstNSqWFMW9ZWEI-57" value="" style="ellipse;whiteSpace=wrap;html=1;aspect=fixed;" vertex="1" parent="1">
          <mxGeometry x="810" y="638" width="10" height="10" as="geometry" />
        </mxCell>
        <mxCell id="fs1XwqstNSqWFMW9ZWEI-58" value="&lt;font style=&quot;font-size: 14px;&quot;&gt;user_id&lt;/font&gt;" style="text;html=1;align=center;verticalAlign=middle;resizable=0;points=[];autosize=1;strokeColor=none;fillColor=none;" vertex="1" parent="1">
          <mxGeometry x="780" y="608" width="70" height="30" as="geometry" />
        </mxCell>
        <mxCell id="-33IPJjmKJxaMF-ZSVQd-1" value="" style="endArrow=none;html=1;rounded=0;exitX=0.5;exitY=0;exitDx=0;exitDy=0;" edge="1" parent="1" source="fs1XwqstNSqWFMW9ZWEI-30" target="-33IPJjmKJxaMF-ZSVQd-2">
          <mxGeometry width="50" height="50" relative="1" as="geometry">
            <mxPoint x="740" y="410" as="sourcePoint" />
            <mxPoint x="820" y="340" as="targetPoint" />
          </mxGeometry>
        </mxCell>
        <mxCell id="-33IPJjmKJxaMF-ZSVQd-2" value="" style="ellipse;whiteSpace=wrap;html=1;aspect=fixed;" vertex="1" parent="1">
          <mxGeometry x="820" y="340" width="10" height="10" as="geometry" />
        </mxCell>
        <mxCell id="-33IPJjmKJxaMF-ZSVQd-3" value="post_id" style="text;html=1;align=center;verticalAlign=middle;resizable=0;points=[];autosize=1;strokeColor=none;fillColor=none;" vertex="1" parent="1">
          <mxGeometry x="780" y="308" width="60" height="30" as="geometry" />
        </mxCell>
        <mxCell id="-33IPJjmKJxaMF-ZSVQd-4" value="" style="endArrow=none;html=1;rounded=0;exitX=0;exitY=0.5;exitDx=0;exitDy=0;" edge="1" parent="1" source="fs1XwqstNSqWFMW9ZWEI-31" target="-33IPJjmKJxaMF-ZSVQd-5">
          <mxGeometry width="50" height="50" relative="1" as="geometry">
            <mxPoint x="740" y="580" as="sourcePoint" />
            <mxPoint x="790" y="700" as="targetPoint" />
          </mxGeometry>
        </mxCell>
        <mxCell id="-33IPJjmKJxaMF-ZSVQd-5" value="" style="ellipse;whiteSpace=wrap;html=1;aspect=fixed;" vertex="1" parent="1">
          <mxGeometry x="760" y="668" width="10" height="10" as="geometry" />
        </mxCell>
        <mxCell id="-33IPJjmKJxaMF-ZSVQd-6" value="post_id" style="text;html=1;align=center;verticalAlign=middle;resizable=0;points=[];autosize=1;strokeColor=none;fillColor=none;" vertex="1" parent="1">
          <mxGeometry x="730" y="640" width="60" height="30" as="geometry" />
        </mxCell>
        <mxCell id="BY2s3Hjd13lD0co_eiw1-1" value="" style="endArrow=none;html=1;rounded=0;entryX=0.5;entryY=1;entryDx=0;entryDy=0;exitX=0.5;exitY=0;exitDx=0;exitDy=0;" edge="1" parent="1" source="fs1XwqstNSqWFMW9ZWEI-45" target="ZGm1ggxYHmSDCsutLMKt-1">
          <mxGeometry width="50" height="50" relative="1" as="geometry">
            <mxPoint x="640" y="410" as="sourcePoint" />
            <mxPoint x="690" y="360" as="targetPoint" />
            <Array as="points">
              <mxPoint x="520" y="240" />
              <mxPoint x="340" y="240" />
            </Array>
          </mxGeometry>
        </mxCell>
        <mxCell id="BY2s3Hjd13lD0co_eiw1-2" value="1" style="text;html=1;align=center;verticalAlign=middle;resizable=0;points=[];autosize=1;strokeColor=none;fillColor=none;" vertex="1" parent="1">
          <mxGeometry x="515" y="260" width="30" height="30" as="geometry" />
        </mxCell>
      </root>
    </mxGraphModel>
  </diagram>
  <diagram name="RDM_diagram" id="1ilzybk9AUL5rs9gTaFk">
    <mxGraphModel dx="1707" dy="1596" grid="1" gridSize="8" guides="1" tooltips="1" connect="1" arrows="1" fold="1" page="1" pageScale="1" pageWidth="850" pageHeight="1100" math="0" shadow="0">
      <root>
        <mxCell id="0" />
        <mxCell id="1" parent="0" />
        <mxCell id="6ACSp5M027pT7ZYRqjHL-4" value="user_account" style="shape=table;startSize=30;container=1;collapsible=1;childLayout=tableLayout;fixedRows=1;rowLines=0;fontStyle=1;align=center;resizeLast=1;html=1;" parent="1" vertex="1">
          <mxGeometry x="64" y="95" width="180" height="180" as="geometry" />
        </mxCell>
        <mxCell id="6ACSp5M027pT7ZYRqjHL-5" value="" style="shape=tableRow;horizontal=0;startSize=0;swimlaneHead=0;swimlaneBody=0;fillColor=none;collapsible=0;dropTarget=0;points=[[0,0.5],[1,0.5]];portConstraint=eastwest;top=0;left=0;right=0;bottom=1;" parent="6ACSp5M027pT7ZYRqjHL-4" vertex="1">
          <mxGeometry y="30" width="180" height="30" as="geometry" />
        </mxCell>
        <mxCell id="6ACSp5M027pT7ZYRqjHL-6" value="PK" style="shape=partialRectangle;connectable=0;fillColor=none;top=0;left=0;bottom=0;right=0;fontStyle=1;overflow=hidden;whiteSpace=wrap;html=1;" parent="6ACSp5M027pT7ZYRqjHL-5" vertex="1">
          <mxGeometry width="30" height="30" as="geometry">
            <mxRectangle width="30" height="30" as="alternateBounds" />
          </mxGeometry>
        </mxCell>
        <mxCell id="6ACSp5M027pT7ZYRqjHL-7" value="user_id&lt;span style=&quot;white-space: pre;&quot;&gt;&#x9;&lt;/span&gt;&lt;span style=&quot;white-space: pre;&quot;&gt;&#x9;&lt;/span&gt;&lt;span style=&quot;white-space: pre;&quot;&gt;&#x9;&lt;/span&gt;UUID" style="shape=partialRectangle;connectable=0;fillColor=none;top=0;left=0;bottom=0;right=0;align=left;spacingLeft=6;fontStyle=5;overflow=hidden;whiteSpace=wrap;html=1;" parent="6ACSp5M027pT7ZYRqjHL-5" vertex="1">
          <mxGeometry x="30" width="150" height="30" as="geometry">
            <mxRectangle width="150" height="30" as="alternateBounds" />
          </mxGeometry>
        </mxCell>
        <mxCell id="6ACSp5M027pT7ZYRqjHL-8" value="" style="shape=tableRow;horizontal=0;startSize=0;swimlaneHead=0;swimlaneBody=0;fillColor=none;collapsible=0;dropTarget=0;points=[[0,0.5],[1,0.5]];portConstraint=eastwest;top=0;left=0;right=0;bottom=0;" parent="6ACSp5M027pT7ZYRqjHL-4" vertex="1">
          <mxGeometry y="60" width="180" height="30" as="geometry" />
        </mxCell>
        <mxCell id="6ACSp5M027pT7ZYRqjHL-9" value="" style="shape=partialRectangle;connectable=0;fillColor=none;top=0;left=0;bottom=0;right=0;editable=1;overflow=hidden;whiteSpace=wrap;html=1;" parent="6ACSp5M027pT7ZYRqjHL-8" vertex="1">
          <mxGeometry width="30" height="30" as="geometry">
            <mxRectangle width="30" height="30" as="alternateBounds" />
          </mxGeometry>
        </mxCell>
        <mxCell id="6ACSp5M027pT7ZYRqjHL-10" value="email&lt;span style=&quot;white-space: pre;&quot;&gt;&#x9;&lt;/span&gt;&lt;span style=&quot;white-space: pre;&quot;&gt;&#x9;&lt;/span&gt;VARCHAR" style="shape=partialRectangle;connectable=0;fillColor=none;top=0;left=0;bottom=0;right=0;align=left;spacingLeft=6;overflow=hidden;whiteSpace=wrap;html=1;" parent="6ACSp5M027pT7ZYRqjHL-8" vertex="1">
          <mxGeometry x="30" width="150" height="30" as="geometry">
            <mxRectangle width="150" height="30" as="alternateBounds" />
          </mxGeometry>
        </mxCell>
        <mxCell id="6ACSp5M027pT7ZYRqjHL-11" value="" style="shape=tableRow;horizontal=0;startSize=0;swimlaneHead=0;swimlaneBody=0;fillColor=none;collapsible=0;dropTarget=0;points=[[0,0.5],[1,0.5]];portConstraint=eastwest;top=0;left=0;right=0;bottom=0;" parent="6ACSp5M027pT7ZYRqjHL-4" vertex="1">
          <mxGeometry y="90" width="180" height="30" as="geometry" />
        </mxCell>
        <mxCell id="6ACSp5M027pT7ZYRqjHL-12" value="" style="shape=partialRectangle;connectable=0;fillColor=none;top=0;left=0;bottom=0;right=0;editable=1;overflow=hidden;whiteSpace=wrap;html=1;" parent="6ACSp5M027pT7ZYRqjHL-11" vertex="1">
          <mxGeometry width="30" height="30" as="geometry">
            <mxRectangle width="30" height="30" as="alternateBounds" />
          </mxGeometry>
        </mxCell>
        <mxCell id="6ACSp5M027pT7ZYRqjHL-13" value="password&lt;span style=&quot;white-space: pre;&quot;&gt;&#x9;&lt;/span&gt;&lt;span style=&quot;white-space: pre;&quot;&gt;&#x9;&lt;/span&gt;VARCHAR&lt;span style=&quot;white-space: pre;&quot;&gt;&#x9;&lt;/span&gt;" style="shape=partialRectangle;connectable=0;fillColor=none;top=0;left=0;bottom=0;right=0;align=left;spacingLeft=6;overflow=hidden;whiteSpace=wrap;html=1;" parent="6ACSp5M027pT7ZYRqjHL-11" vertex="1">
          <mxGeometry x="30" width="150" height="30" as="geometry">
            <mxRectangle width="150" height="30" as="alternateBounds" />
          </mxGeometry>
        </mxCell>
        <mxCell id="6ACSp5M027pT7ZYRqjHL-14" value="" style="shape=tableRow;horizontal=0;startSize=0;swimlaneHead=0;swimlaneBody=0;fillColor=none;collapsible=0;dropTarget=0;points=[[0,0.5],[1,0.5]];portConstraint=eastwest;top=0;left=0;right=0;bottom=0;" parent="6ACSp5M027pT7ZYRqjHL-4" vertex="1">
          <mxGeometry y="120" width="180" height="30" as="geometry" />
        </mxCell>
        <mxCell id="6ACSp5M027pT7ZYRqjHL-15" value="" style="shape=partialRectangle;connectable=0;fillColor=none;top=0;left=0;bottom=0;right=0;editable=1;overflow=hidden;whiteSpace=wrap;html=1;" parent="6ACSp5M027pT7ZYRqjHL-14" vertex="1">
          <mxGeometry width="30" height="30" as="geometry">
            <mxRectangle width="30" height="30" as="alternateBounds" />
          </mxGeometry>
        </mxCell>
        <mxCell id="6ACSp5M027pT7ZYRqjHL-16" value="username&lt;span style=&quot;white-space: pre;&quot;&gt;&#x9;&lt;/span&gt;VARCHAR&lt;span style=&quot;white-space: pre;&quot;&gt;&#x9;&lt;/span&gt;" style="shape=partialRectangle;connectable=0;fillColor=none;top=0;left=0;bottom=0;right=0;align=left;spacingLeft=6;overflow=hidden;whiteSpace=wrap;html=1;" parent="6ACSp5M027pT7ZYRqjHL-14" vertex="1">
          <mxGeometry x="30" width="150" height="30" as="geometry">
            <mxRectangle width="150" height="30" as="alternateBounds" />
          </mxGeometry>
        </mxCell>
        <mxCell id="6ACSp5M027pT7ZYRqjHL-43" value="" style="shape=tableRow;horizontal=0;startSize=0;swimlaneHead=0;swimlaneBody=0;fillColor=none;collapsible=0;dropTarget=0;points=[[0,0.5],[1,0.5]];portConstraint=eastwest;top=0;left=0;right=0;bottom=0;" parent="6ACSp5M027pT7ZYRqjHL-4" vertex="1">
          <mxGeometry y="150" width="180" height="30" as="geometry" />
        </mxCell>
        <mxCell id="6ACSp5M027pT7ZYRqjHL-44" value="" style="shape=partialRectangle;connectable=0;fillColor=none;top=0;left=0;bottom=0;right=0;editable=1;overflow=hidden;whiteSpace=wrap;html=1;" parent="6ACSp5M027pT7ZYRqjHL-43" vertex="1">
          <mxGeometry width="30" height="30" as="geometry">
            <mxRectangle width="30" height="30" as="alternateBounds" />
          </mxGeometry>
        </mxCell>
        <mxCell id="6ACSp5M027pT7ZYRqjHL-45" value="created_at&lt;span style=&quot;white-space: pre;&quot;&gt;&#x9;&lt;/span&gt;DATETIME" style="shape=partialRectangle;connectable=0;fillColor=none;top=0;left=0;bottom=0;right=0;align=left;spacingLeft=6;overflow=hidden;whiteSpace=wrap;html=1;" parent="6ACSp5M027pT7ZYRqjHL-43" vertex="1">
          <mxGeometry x="30" width="150" height="30" as="geometry">
            <mxRectangle width="150" height="30" as="alternateBounds" />
          </mxGeometry>
        </mxCell>
        <mxCell id="6ACSp5M027pT7ZYRqjHL-17" value="user_profile" style="shape=table;startSize=30;container=1;collapsible=1;childLayout=tableLayout;fixedRows=1;rowLines=0;fontStyle=1;align=center;resizeLast=1;html=1;" parent="1" vertex="1">
          <mxGeometry x="352" y="95" width="208" height="306" as="geometry" />
        </mxCell>
        <mxCell id="6ACSp5M027pT7ZYRqjHL-18" value="" style="shape=tableRow;horizontal=0;startSize=0;swimlaneHead=0;swimlaneBody=0;fillColor=none;collapsible=0;dropTarget=0;points=[[0,0.5],[1,0.5]];portConstraint=eastwest;top=0;left=0;right=0;bottom=1;" parent="6ACSp5M027pT7ZYRqjHL-17" vertex="1">
          <mxGeometry y="30" width="208" height="30" as="geometry" />
        </mxCell>
        <mxCell id="6ACSp5M027pT7ZYRqjHL-19" value="PK" style="shape=partialRectangle;connectable=0;fillColor=none;top=0;left=0;bottom=0;right=0;fontStyle=1;overflow=hidden;whiteSpace=wrap;html=1;" parent="6ACSp5M027pT7ZYRqjHL-18" vertex="1">
          <mxGeometry width="30" height="30" as="geometry">
            <mxRectangle width="30" height="30" as="alternateBounds" />
          </mxGeometry>
        </mxCell>
        <mxCell id="6ACSp5M027pT7ZYRqjHL-20" value="profile_id&lt;span style=&quot;white-space: pre;&quot;&gt;&#x9;&lt;span style=&quot;white-space: pre;&quot;&gt;&#x9;&lt;/span&gt;&lt;/span&gt;VARCHAR" style="shape=partialRectangle;connectable=0;fillColor=none;top=0;left=0;bottom=0;right=0;align=left;spacingLeft=6;fontStyle=5;overflow=hidden;whiteSpace=wrap;html=1;" parent="6ACSp5M027pT7ZYRqjHL-18" vertex="1">
          <mxGeometry x="30" width="178" height="30" as="geometry">
            <mxRectangle width="178" height="30" as="alternateBounds" />
          </mxGeometry>
        </mxCell>
        <mxCell id="6ACSp5M027pT7ZYRqjHL-21" value="" style="shape=tableRow;horizontal=0;startSize=0;swimlaneHead=0;swimlaneBody=0;fillColor=none;collapsible=0;dropTarget=0;points=[[0,0.5],[1,0.5]];portConstraint=eastwest;top=0;left=0;right=0;bottom=0;" parent="6ACSp5M027pT7ZYRqjHL-17" vertex="1">
          <mxGeometry y="60" width="208" height="30" as="geometry" />
        </mxCell>
        <mxCell id="6ACSp5M027pT7ZYRqjHL-22" value="" style="shape=partialRectangle;connectable=0;fillColor=none;top=0;left=0;bottom=0;right=0;editable=1;overflow=hidden;whiteSpace=wrap;html=1;" parent="6ACSp5M027pT7ZYRqjHL-21" vertex="1">
          <mxGeometry width="30" height="30" as="geometry">
            <mxRectangle width="30" height="30" as="alternateBounds" />
          </mxGeometry>
        </mxCell>
        <mxCell id="6ACSp5M027pT7ZYRqjHL-23" value="email&lt;span style=&quot;white-space: pre;&quot;&gt;&#x9;&lt;/span&gt;&lt;span style=&quot;white-space: pre;&quot;&gt;&#x9;&lt;span style=&quot;white-space: pre;&quot;&gt;&#x9;&lt;/span&gt;&lt;/span&gt;VARCHAR" style="shape=partialRectangle;connectable=0;fillColor=none;top=0;left=0;bottom=0;right=0;align=left;spacingLeft=6;overflow=hidden;whiteSpace=wrap;html=1;" parent="6ACSp5M027pT7ZYRqjHL-21" vertex="1">
          <mxGeometry x="30" width="178" height="30" as="geometry">
            <mxRectangle width="178" height="30" as="alternateBounds" />
          </mxGeometry>
        </mxCell>
        <mxCell id="6ACSp5M027pT7ZYRqjHL-24" value="" style="shape=tableRow;horizontal=0;startSize=0;swimlaneHead=0;swimlaneBody=0;fillColor=none;collapsible=0;dropTarget=0;points=[[0,0.5],[1,0.5]];portConstraint=eastwest;top=0;left=0;right=0;bottom=0;" parent="6ACSp5M027pT7ZYRqjHL-17" vertex="1">
          <mxGeometry y="90" width="208" height="30" as="geometry" />
        </mxCell>
        <mxCell id="6ACSp5M027pT7ZYRqjHL-25" value="" style="shape=partialRectangle;connectable=0;fillColor=none;top=0;left=0;bottom=0;right=0;editable=1;overflow=hidden;whiteSpace=wrap;html=1;" parent="6ACSp5M027pT7ZYRqjHL-24" vertex="1">
          <mxGeometry width="30" height="30" as="geometry">
            <mxRectangle width="30" height="30" as="alternateBounds" />
          </mxGeometry>
        </mxCell>
        <mxCell id="6ACSp5M027pT7ZYRqjHL-26" value="username&lt;span style=&quot;white-space: pre;&quot;&gt;&#x9;&lt;span style=&quot;white-space: pre;&quot;&gt;&#x9;&lt;/span&gt;&lt;/span&gt;VARCHAR" style="shape=partialRectangle;connectable=0;fillColor=none;top=0;left=0;bottom=0;right=0;align=left;spacingLeft=6;overflow=hidden;whiteSpace=wrap;html=1;" parent="6ACSp5M027pT7ZYRqjHL-24" vertex="1">
          <mxGeometry x="30" width="178" height="30" as="geometry">
            <mxRectangle width="178" height="30" as="alternateBounds" />
          </mxGeometry>
        </mxCell>
        <mxCell id="6ACSp5M027pT7ZYRqjHL-27" value="" style="shape=tableRow;horizontal=0;startSize=0;swimlaneHead=0;swimlaneBody=0;fillColor=none;collapsible=0;dropTarget=0;points=[[0,0.5],[1,0.5]];portConstraint=eastwest;top=0;left=0;right=0;bottom=0;" parent="6ACSp5M027pT7ZYRqjHL-17" vertex="1">
          <mxGeometry y="120" width="208" height="30" as="geometry" />
        </mxCell>
        <mxCell id="6ACSp5M027pT7ZYRqjHL-28" value="" style="shape=partialRectangle;connectable=0;fillColor=none;top=0;left=0;bottom=0;right=0;editable=1;overflow=hidden;whiteSpace=wrap;html=1;" parent="6ACSp5M027pT7ZYRqjHL-27" vertex="1">
          <mxGeometry width="30" height="30" as="geometry">
            <mxRectangle width="30" height="30" as="alternateBounds" />
          </mxGeometry>
        </mxCell>
        <mxCell id="6ACSp5M027pT7ZYRqjHL-29" value="image&lt;span style=&quot;white-space: pre;&quot;&gt;&#x9;&lt;/span&gt;&lt;span style=&quot;white-space: pre;&quot;&gt;&#x9;&lt;span style=&quot;white-space: pre;&quot;&gt;&#x9;&lt;/span&gt;&lt;/span&gt;VARCHAR" style="shape=partialRectangle;connectable=0;fillColor=none;top=0;left=0;bottom=0;right=0;align=left;spacingLeft=6;overflow=hidden;whiteSpace=wrap;html=1;" parent="6ACSp5M027pT7ZYRqjHL-27" vertex="1">
          <mxGeometry x="30" width="178" height="30" as="geometry">
            <mxRectangle width="178" height="30" as="alternateBounds" />
          </mxGeometry>
        </mxCell>
        <mxCell id="6ACSp5M027pT7ZYRqjHL-46" value="" style="shape=tableRow;horizontal=0;startSize=0;swimlaneHead=0;swimlaneBody=0;fillColor=none;collapsible=0;dropTarget=0;points=[[0,0.5],[1,0.5]];portConstraint=eastwest;top=0;left=0;right=0;bottom=0;" parent="6ACSp5M027pT7ZYRqjHL-17" vertex="1">
          <mxGeometry y="150" width="208" height="30" as="geometry" />
        </mxCell>
        <mxCell id="6ACSp5M027pT7ZYRqjHL-47" value="FK" style="shape=partialRectangle;connectable=0;fillColor=none;top=0;left=0;bottom=0;right=0;editable=1;overflow=hidden;whiteSpace=wrap;html=1;" parent="6ACSp5M027pT7ZYRqjHL-46" vertex="1">
          <mxGeometry width="30" height="30" as="geometry">
            <mxRectangle width="30" height="30" as="alternateBounds" />
          </mxGeometry>
        </mxCell>
        <mxCell id="6ACSp5M027pT7ZYRqjHL-48" value="user_id&lt;span style=&quot;white-space: pre;&quot;&gt;&#x9;&lt;/span&gt;&lt;span style=&quot;white-space: pre;&quot;&gt;&#x9;&lt;span style=&quot;white-space: pre;&quot;&gt;&#x9;&lt;span style=&quot;white-space: pre;&quot;&gt;&#x9;&lt;/span&gt;&lt;/span&gt;&lt;/span&gt;UUID" style="shape=partialRectangle;connectable=0;fillColor=none;top=0;left=0;bottom=0;right=0;align=left;spacingLeft=6;overflow=hidden;whiteSpace=wrap;html=1;" parent="6ACSp5M027pT7ZYRqjHL-46" vertex="1">
          <mxGeometry x="30" width="178" height="30" as="geometry">
            <mxRectangle width="178" height="30" as="alternateBounds" />
          </mxGeometry>
        </mxCell>
        <mxCell id="6ACSp5M027pT7ZYRqjHL-63" value="" style="shape=tableRow;horizontal=0;startSize=0;swimlaneHead=0;swimlaneBody=0;fillColor=none;collapsible=0;dropTarget=0;points=[[0,0.5],[1,0.5]];portConstraint=eastwest;top=0;left=0;right=0;bottom=0;" parent="6ACSp5M027pT7ZYRqjHL-17" vertex="1">
          <mxGeometry y="180" width="208" height="44" as="geometry" />
        </mxCell>
        <mxCell id="6ACSp5M027pT7ZYRqjHL-64" value="FK" style="shape=partialRectangle;connectable=0;fillColor=none;top=0;left=0;bottom=0;right=0;editable=1;overflow=hidden;whiteSpace=wrap;html=1;" parent="6ACSp5M027pT7ZYRqjHL-63" vertex="1">
          <mxGeometry width="30" height="44" as="geometry">
            <mxRectangle width="30" height="44" as="alternateBounds" />
          </mxGeometry>
        </mxCell>
        <mxCell id="6ACSp5M027pT7ZYRqjHL-65" value="type_id&lt;span style=&quot;white-space: pre;&quot;&gt;&#x9;&lt;/span&gt;&lt;span style=&quot;white-space: pre;&quot;&gt;&#x9;&lt;span style=&quot;white-space: pre;&quot;&gt;&#x9;&lt;/span&gt;&lt;/span&gt;VARCHAR" style="shape=partialRectangle;connectable=0;fillColor=none;top=0;left=0;bottom=0;right=0;align=left;spacingLeft=6;overflow=hidden;whiteSpace=wrap;html=1;" parent="6ACSp5M027pT7ZYRqjHL-63" vertex="1">
          <mxGeometry x="30" width="178" height="44" as="geometry">
            <mxRectangle width="178" height="44" as="alternateBounds" />
          </mxGeometry>
        </mxCell>
        <mxCell id="mPdtao9su2HDe09H7uZ9-1" value="" style="shape=tableRow;horizontal=0;startSize=0;swimlaneHead=0;swimlaneBody=0;fillColor=none;collapsible=0;dropTarget=0;points=[[0,0.5],[1,0.5]];portConstraint=eastwest;top=0;left=0;right=0;bottom=0;" parent="6ACSp5M027pT7ZYRqjHL-17" vertex="1">
          <mxGeometry y="224" width="208" height="30" as="geometry" />
        </mxCell>
        <mxCell id="mPdtao9su2HDe09H7uZ9-2" value="" style="shape=partialRectangle;connectable=0;fillColor=none;top=0;left=0;bottom=0;right=0;editable=1;overflow=hidden;whiteSpace=wrap;html=1;" parent="mPdtao9su2HDe09H7uZ9-1" vertex="1">
          <mxGeometry width="30" height="30" as="geometry">
            <mxRectangle width="30" height="30" as="alternateBounds" />
          </mxGeometry>
        </mxCell>
        <mxCell id="mPdtao9su2HDe09H7uZ9-3" value="x_link&lt;span style=&quot;white-space: pre;&quot;&gt;&#x9;&lt;/span&gt;&lt;span style=&quot;white-space: pre;&quot;&gt;&#x9;&lt;span style=&quot;white-space: pre;&quot;&gt;&#x9;&lt;/span&gt;&lt;/span&gt;VARCHAR" style="shape=partialRectangle;connectable=0;fillColor=none;top=0;left=0;bottom=0;right=0;align=left;spacingLeft=6;overflow=hidden;whiteSpace=wrap;html=1;" parent="mPdtao9su2HDe09H7uZ9-1" vertex="1">
          <mxGeometry x="30" width="178" height="30" as="geometry">
            <mxRectangle width="178" height="30" as="alternateBounds" />
          </mxGeometry>
        </mxCell>
        <mxCell id="mPdtao9su2HDe09H7uZ9-4" value="" style="shape=tableRow;horizontal=0;startSize=0;swimlaneHead=0;swimlaneBody=0;fillColor=none;collapsible=0;dropTarget=0;points=[[0,0.5],[1,0.5]];portConstraint=eastwest;top=0;left=0;right=0;bottom=0;" parent="6ACSp5M027pT7ZYRqjHL-17" vertex="1">
          <mxGeometry y="254" width="208" height="26" as="geometry" />
        </mxCell>
        <mxCell id="mPdtao9su2HDe09H7uZ9-5" value="" style="shape=partialRectangle;connectable=0;fillColor=none;top=0;left=0;bottom=0;right=0;editable=1;overflow=hidden;whiteSpace=wrap;html=1;" parent="mPdtao9su2HDe09H7uZ9-4" vertex="1">
          <mxGeometry width="30" height="26" as="geometry">
            <mxRectangle width="30" height="26" as="alternateBounds" />
          </mxGeometry>
        </mxCell>
        <mxCell id="mPdtao9su2HDe09H7uZ9-6" value="instagram_link&lt;span style=&quot;white-space: pre;&quot;&gt;&#x9;&lt;/span&gt;&lt;span style=&quot;white-space: pre;&quot;&gt;&#x9;&lt;/span&gt;VARCHAR" style="shape=partialRectangle;connectable=0;fillColor=none;top=0;left=0;bottom=0;right=0;align=left;spacingLeft=6;overflow=hidden;whiteSpace=wrap;html=1;" parent="mPdtao9su2HDe09H7uZ9-4" vertex="1">
          <mxGeometry x="30" width="178" height="26" as="geometry">
            <mxRectangle width="178" height="26" as="alternateBounds" />
          </mxGeometry>
        </mxCell>
        <mxCell id="mPdtao9su2HDe09H7uZ9-7" value="" style="shape=tableRow;horizontal=0;startSize=0;swimlaneHead=0;swimlaneBody=0;fillColor=none;collapsible=0;dropTarget=0;points=[[0,0.5],[1,0.5]];portConstraint=eastwest;top=0;left=0;right=0;bottom=0;" parent="6ACSp5M027pT7ZYRqjHL-17" vertex="1">
          <mxGeometry y="280" width="208" height="26" as="geometry" />
        </mxCell>
        <mxCell id="mPdtao9su2HDe09H7uZ9-8" value="" style="shape=partialRectangle;connectable=0;fillColor=none;top=0;left=0;bottom=0;right=0;editable=1;overflow=hidden;whiteSpace=wrap;html=1;" parent="mPdtao9su2HDe09H7uZ9-7" vertex="1">
          <mxGeometry width="30" height="26" as="geometry">
            <mxRectangle width="30" height="26" as="alternateBounds" />
          </mxGeometry>
        </mxCell>
        <mxCell id="mPdtao9su2HDe09H7uZ9-9" value="artstation_link&lt;span style=&quot;white-space: pre;&quot;&gt;&#x9;&lt;/span&gt;&lt;span style=&quot;white-space: pre;&quot;&gt;&#x9;&lt;/span&gt;VARCHAR" style="shape=partialRectangle;connectable=0;fillColor=none;top=0;left=0;bottom=0;right=0;align=left;spacingLeft=6;overflow=hidden;whiteSpace=wrap;html=1;" parent="mPdtao9su2HDe09H7uZ9-7" vertex="1">
          <mxGeometry x="30" width="178" height="26" as="geometry">
            <mxRectangle width="178" height="26" as="alternateBounds" />
          </mxGeometry>
        </mxCell>
        <mxCell id="6ACSp5M027pT7ZYRqjHL-62" value="" style="edgeStyle=entityRelationEdgeStyle;fontSize=12;html=1;endArrow=ERmandOne;startArrow=ERmandOne;rounded=0;entryX=0;entryY=0.5;entryDx=0;entryDy=0;exitX=1;exitY=0.25;exitDx=0;exitDy=0;" parent="1" source="6ACSp5M027pT7ZYRqjHL-4" target="6ACSp5M027pT7ZYRqjHL-46" edge="1">
          <mxGeometry width="100" height="100" relative="1" as="geometry">
            <mxPoint x="330" y="290" as="sourcePoint" />
            <mxPoint x="430" y="190" as="targetPoint" />
          </mxGeometry>
        </mxCell>
        <mxCell id="6ACSp5M027pT7ZYRqjHL-67" value="user_type" style="shape=table;startSize=30;container=1;collapsible=1;childLayout=tableLayout;fixedRows=1;rowLines=0;fontStyle=1;align=center;resizeLast=1;html=1;" parent="1" vertex="1">
          <mxGeometry x="34" y="352" width="240" height="190" as="geometry" />
        </mxCell>
        <mxCell id="6ACSp5M027pT7ZYRqjHL-68" value="" style="shape=tableRow;horizontal=0;startSize=0;swimlaneHead=0;swimlaneBody=0;fillColor=none;collapsible=0;dropTarget=0;points=[[0,0.5],[1,0.5]];portConstraint=eastwest;top=0;left=0;right=0;bottom=1;" parent="6ACSp5M027pT7ZYRqjHL-67" vertex="1">
          <mxGeometry y="30" width="240" height="30" as="geometry" />
        </mxCell>
        <mxCell id="6ACSp5M027pT7ZYRqjHL-69" value="PK" style="shape=partialRectangle;connectable=0;fillColor=none;top=0;left=0;bottom=0;right=0;fontStyle=1;overflow=hidden;whiteSpace=wrap;html=1;" parent="6ACSp5M027pT7ZYRqjHL-68" vertex="1">
          <mxGeometry width="30" height="30" as="geometry">
            <mxRectangle width="30" height="30" as="alternateBounds" />
          </mxGeometry>
        </mxCell>
        <mxCell id="6ACSp5M027pT7ZYRqjHL-70" value="type_id&lt;span style=&quot;white-space: pre;&quot;&gt;&#x9;&lt;/span&gt;&lt;span style=&quot;white-space: pre;&quot;&gt;&#x9;&lt;span style=&quot;white-space: pre;&quot;&gt;&#x9;&lt;/span&gt;&lt;span style=&quot;white-space: pre;&quot;&gt;&#x9;&lt;/span&gt;&lt;/span&gt;VARCHAR" style="shape=partialRectangle;connectable=0;fillColor=none;top=0;left=0;bottom=0;right=0;align=left;spacingLeft=6;fontStyle=5;overflow=hidden;whiteSpace=wrap;html=1;" parent="6ACSp5M027pT7ZYRqjHL-68" vertex="1">
          <mxGeometry x="30" width="210" height="30" as="geometry">
            <mxRectangle width="210" height="30" as="alternateBounds" />
          </mxGeometry>
        </mxCell>
        <mxCell id="6ACSp5M027pT7ZYRqjHL-71" value="" style="shape=tableRow;horizontal=0;startSize=0;swimlaneHead=0;swimlaneBody=0;fillColor=none;collapsible=0;dropTarget=0;points=[[0,0.5],[1,0.5]];portConstraint=eastwest;top=0;left=0;right=0;bottom=0;" parent="6ACSp5M027pT7ZYRqjHL-67" vertex="1">
          <mxGeometry y="60" width="240" height="30" as="geometry" />
        </mxCell>
        <mxCell id="6ACSp5M027pT7ZYRqjHL-72" value="" style="shape=partialRectangle;connectable=0;fillColor=none;top=0;left=0;bottom=0;right=0;editable=1;overflow=hidden;whiteSpace=wrap;html=1;" parent="6ACSp5M027pT7ZYRqjHL-71" vertex="1">
          <mxGeometry width="30" height="30" as="geometry">
            <mxRectangle width="30" height="30" as="alternateBounds" />
          </mxGeometry>
        </mxCell>
        <mxCell id="6ACSp5M027pT7ZYRqjHL-73" value="type_name&lt;span style=&quot;white-space: pre;&quot;&gt;&#x9;&lt;/span&gt;&lt;span style=&quot;white-space: pre;&quot;&gt;&#x9;&lt;span style=&quot;white-space: pre;&quot;&gt;&#x9;&lt;/span&gt;&lt;/span&gt;VARCHAR" style="shape=partialRectangle;connectable=0;fillColor=none;top=0;left=0;bottom=0;right=0;align=left;spacingLeft=6;overflow=hidden;whiteSpace=wrap;html=1;" parent="6ACSp5M027pT7ZYRqjHL-71" vertex="1">
          <mxGeometry x="30" width="210" height="30" as="geometry">
            <mxRectangle width="210" height="30" as="alternateBounds" />
          </mxGeometry>
        </mxCell>
        <mxCell id="6ACSp5M027pT7ZYRqjHL-74" value="" style="shape=tableRow;horizontal=0;startSize=0;swimlaneHead=0;swimlaneBody=0;fillColor=none;collapsible=0;dropTarget=0;points=[[0,0.5],[1,0.5]];portConstraint=eastwest;top=0;left=0;right=0;bottom=0;" parent="6ACSp5M027pT7ZYRqjHL-67" vertex="1">
          <mxGeometry y="90" width="240" height="38" as="geometry" />
        </mxCell>
        <mxCell id="6ACSp5M027pT7ZYRqjHL-75" value="" style="shape=partialRectangle;connectable=0;fillColor=none;top=0;left=0;bottom=0;right=0;editable=1;overflow=hidden;whiteSpace=wrap;html=1;" parent="6ACSp5M027pT7ZYRqjHL-74" vertex="1">
          <mxGeometry width="30" height="38" as="geometry">
            <mxRectangle width="30" height="38" as="alternateBounds" />
          </mxGeometry>
        </mxCell>
        <mxCell id="6ACSp5M027pT7ZYRqjHL-76" value="max_image_quality&lt;span style=&quot;white-space: pre;&quot;&gt;&#x9;&lt;span style=&quot;white-space: pre;&quot;&gt;&#x9;&lt;/span&gt;&lt;/span&gt;INTEGER" style="shape=partialRectangle;connectable=0;fillColor=none;top=0;left=0;bottom=0;right=0;align=left;spacingLeft=6;overflow=hidden;whiteSpace=wrap;html=1;" parent="6ACSp5M027pT7ZYRqjHL-74" vertex="1">
          <mxGeometry x="30" width="210" height="38" as="geometry">
            <mxRectangle width="210" height="38" as="alternateBounds" />
          </mxGeometry>
        </mxCell>
        <mxCell id="6ACSp5M027pT7ZYRqjHL-77" value="" style="shape=tableRow;horizontal=0;startSize=0;swimlaneHead=0;swimlaneBody=0;fillColor=none;collapsible=0;dropTarget=0;points=[[0,0.5],[1,0.5]];portConstraint=eastwest;top=0;left=0;right=0;bottom=0;" parent="6ACSp5M027pT7ZYRqjHL-67" vertex="1">
          <mxGeometry y="128" width="240" height="24" as="geometry" />
        </mxCell>
        <mxCell id="6ACSp5M027pT7ZYRqjHL-78" value="" style="shape=partialRectangle;connectable=0;fillColor=none;top=0;left=0;bottom=0;right=0;editable=1;overflow=hidden;whiteSpace=wrap;html=1;" parent="6ACSp5M027pT7ZYRqjHL-77" vertex="1">
          <mxGeometry width="30" height="24" as="geometry">
            <mxRectangle width="30" height="24" as="alternateBounds" />
          </mxGeometry>
        </mxCell>
        <mxCell id="6ACSp5M027pT7ZYRqjHL-79" value="max_image_size&lt;span style=&quot;white-space: pre;&quot;&gt;&#x9;&lt;span style=&quot;white-space: pre;&quot;&gt;&#x9;&lt;/span&gt;&lt;/span&gt;INTEGER" style="shape=partialRectangle;connectable=0;fillColor=none;top=0;left=0;bottom=0;right=0;align=left;spacingLeft=6;overflow=hidden;whiteSpace=wrap;html=1;" parent="6ACSp5M027pT7ZYRqjHL-77" vertex="1">
          <mxGeometry x="30" width="210" height="24" as="geometry">
            <mxRectangle width="210" height="24" as="alternateBounds" />
          </mxGeometry>
        </mxCell>
        <mxCell id="zm6RSX1cB_BBQUxubCJR-1" value="" style="shape=tableRow;horizontal=0;startSize=0;swimlaneHead=0;swimlaneBody=0;fillColor=none;collapsible=0;dropTarget=0;points=[[0,0.5],[1,0.5]];portConstraint=eastwest;top=0;left=0;right=0;bottom=0;" parent="6ACSp5M027pT7ZYRqjHL-67" vertex="1">
          <mxGeometry y="152" width="240" height="38" as="geometry" />
        </mxCell>
        <mxCell id="zm6RSX1cB_BBQUxubCJR-2" value="" style="shape=partialRectangle;connectable=0;fillColor=none;top=0;left=0;bottom=0;right=0;editable=1;overflow=hidden;whiteSpace=wrap;html=1;" parent="zm6RSX1cB_BBQUxubCJR-1" vertex="1">
          <mxGeometry width="30" height="38" as="geometry">
            <mxRectangle width="30" height="38" as="alternateBounds" />
          </mxGeometry>
        </mxCell>
        <mxCell id="zm6RSX1cB_BBQUxubCJR-3" value="price&lt;span style=&quot;white-space: pre;&quot;&gt;&#x9;&lt;/span&gt;&lt;span style=&quot;white-space: pre;&quot;&gt;&#x9;&lt;/span&gt;&lt;span style=&quot;white-space: pre;&quot;&gt;&#x9;&lt;/span&gt;&lt;span style=&quot;white-space: pre;&quot;&gt;&#x9;&lt;/span&gt;DEMICAL" style="shape=partialRectangle;connectable=0;fillColor=none;top=0;left=0;bottom=0;right=0;align=left;spacingLeft=6;overflow=hidden;whiteSpace=wrap;html=1;" parent="zm6RSX1cB_BBQUxubCJR-1" vertex="1">
          <mxGeometry x="30" width="210" height="38" as="geometry">
            <mxRectangle width="210" height="38" as="alternateBounds" />
          </mxGeometry>
        </mxCell>
        <mxCell id="6ACSp5M027pT7ZYRqjHL-80" value="" style="edgeStyle=entityRelationEdgeStyle;fontSize=12;html=1;endArrow=ERmandOne;startArrow=ERmandOne;rounded=0;exitX=1;exitY=0.5;exitDx=0;exitDy=0;entryX=0;entryY=0.5;entryDx=0;entryDy=0;" parent="1" source="6ACSp5M027pT7ZYRqjHL-68" target="6ACSp5M027pT7ZYRqjHL-63" edge="1">
          <mxGeometry width="100" height="100" relative="1" as="geometry">
            <mxPoint x="340" y="290" as="sourcePoint" />
            <mxPoint x="520" y="304" as="targetPoint" />
          </mxGeometry>
        </mxCell>
        <mxCell id="g7EFuA3oKOo5NqV6qDpY-1" value="like" style="shape=table;startSize=30;container=1;collapsible=1;childLayout=tableLayout;fixedRows=1;rowLines=0;fontStyle=1;align=center;resizeLast=1;html=1;" vertex="1" parent="1">
          <mxGeometry x="-560" y="-40" width="224" height="150" as="geometry" />
        </mxCell>
        <mxCell id="g7EFuA3oKOo5NqV6qDpY-2" value="" style="shape=tableRow;horizontal=0;startSize=0;swimlaneHead=0;swimlaneBody=0;fillColor=none;collapsible=0;dropTarget=0;points=[[0,0.5],[1,0.5]];portConstraint=eastwest;top=0;left=0;right=0;bottom=1;" vertex="1" parent="g7EFuA3oKOo5NqV6qDpY-1">
          <mxGeometry y="30" width="224" height="30" as="geometry" />
        </mxCell>
        <mxCell id="g7EFuA3oKOo5NqV6qDpY-3" value="PK" style="shape=partialRectangle;connectable=0;fillColor=none;top=0;left=0;bottom=0;right=0;fontStyle=1;overflow=hidden;whiteSpace=wrap;html=1;" vertex="1" parent="g7EFuA3oKOo5NqV6qDpY-2">
          <mxGeometry width="30" height="30" as="geometry">
            <mxRectangle width="30" height="30" as="alternateBounds" />
          </mxGeometry>
        </mxCell>
        <mxCell id="g7EFuA3oKOo5NqV6qDpY-4" value="like_id&lt;span style=&quot;white-space: pre;&quot;&gt;&#x9;&lt;/span&gt;&lt;span style=&quot;white-space: pre;&quot;&gt;&#x9;&lt;span style=&quot;white-space: pre;&quot;&gt;&#x9;&lt;/span&gt;&lt;/span&gt;VARCHAR" style="shape=partialRectangle;connectable=0;fillColor=none;top=0;left=0;bottom=0;right=0;align=left;spacingLeft=6;fontStyle=5;overflow=hidden;whiteSpace=wrap;html=1;" vertex="1" parent="g7EFuA3oKOo5NqV6qDpY-2">
          <mxGeometry x="30" width="194" height="30" as="geometry">
            <mxRectangle width="194" height="30" as="alternateBounds" />
          </mxGeometry>
        </mxCell>
        <mxCell id="g7EFuA3oKOo5NqV6qDpY-5" value="" style="shape=tableRow;horizontal=0;startSize=0;swimlaneHead=0;swimlaneBody=0;fillColor=none;collapsible=0;dropTarget=0;points=[[0,0.5],[1,0.5]];portConstraint=eastwest;top=0;left=0;right=0;bottom=0;" vertex="1" parent="g7EFuA3oKOo5NqV6qDpY-1">
          <mxGeometry y="60" width="224" height="30" as="geometry" />
        </mxCell>
        <mxCell id="g7EFuA3oKOo5NqV6qDpY-6" value="FK" style="shape=partialRectangle;connectable=0;fillColor=none;top=0;left=0;bottom=0;right=0;editable=1;overflow=hidden;whiteSpace=wrap;html=1;" vertex="1" parent="g7EFuA3oKOo5NqV6qDpY-5">
          <mxGeometry width="30" height="30" as="geometry">
            <mxRectangle width="30" height="30" as="alternateBounds" />
          </mxGeometry>
        </mxCell>
        <mxCell id="g7EFuA3oKOo5NqV6qDpY-7" value="post_id&lt;span style=&quot;white-space: pre;&quot;&gt;&#x9;&lt;/span&gt;&lt;span style=&quot;white-space: pre;&quot;&gt;&#x9;&lt;span style=&quot;white-space: pre;&quot;&gt;&#x9;&lt;/span&gt;&lt;/span&gt;VARCHAR" style="shape=partialRectangle;connectable=0;fillColor=none;top=0;left=0;bottom=0;right=0;align=left;spacingLeft=6;overflow=hidden;whiteSpace=wrap;html=1;" vertex="1" parent="g7EFuA3oKOo5NqV6qDpY-5">
          <mxGeometry x="30" width="194" height="30" as="geometry">
            <mxRectangle width="194" height="30" as="alternateBounds" />
          </mxGeometry>
        </mxCell>
        <mxCell id="g7EFuA3oKOo5NqV6qDpY-8" value="" style="shape=tableRow;horizontal=0;startSize=0;swimlaneHead=0;swimlaneBody=0;fillColor=none;collapsible=0;dropTarget=0;points=[[0,0.5],[1,0.5]];portConstraint=eastwest;top=0;left=0;right=0;bottom=0;" vertex="1" parent="g7EFuA3oKOo5NqV6qDpY-1">
          <mxGeometry y="90" width="224" height="30" as="geometry" />
        </mxCell>
        <mxCell id="g7EFuA3oKOo5NqV6qDpY-9" value="FK" style="shape=partialRectangle;connectable=0;fillColor=none;top=0;left=0;bottom=0;right=0;editable=1;overflow=hidden;whiteSpace=wrap;html=1;" vertex="1" parent="g7EFuA3oKOo5NqV6qDpY-8">
          <mxGeometry width="30" height="30" as="geometry">
            <mxRectangle width="30" height="30" as="alternateBounds" />
          </mxGeometry>
        </mxCell>
        <mxCell id="g7EFuA3oKOo5NqV6qDpY-10" value="user_id&lt;span style=&quot;white-space: pre;&quot;&gt;&#x9;&lt;/span&gt;&lt;span style=&quot;white-space: pre;&quot;&gt;&#x9;&lt;span style=&quot;white-space: pre;&quot;&gt;&#x9;&lt;/span&gt;&lt;/span&gt;VARHCAR" style="shape=partialRectangle;connectable=0;fillColor=none;top=0;left=0;bottom=0;right=0;align=left;spacingLeft=6;overflow=hidden;whiteSpace=wrap;html=1;" vertex="1" parent="g7EFuA3oKOo5NqV6qDpY-8">
          <mxGeometry x="30" width="194" height="30" as="geometry">
            <mxRectangle width="194" height="30" as="alternateBounds" />
          </mxGeometry>
        </mxCell>
        <mxCell id="g7EFuA3oKOo5NqV6qDpY-11" value="" style="shape=tableRow;horizontal=0;startSize=0;swimlaneHead=0;swimlaneBody=0;fillColor=none;collapsible=0;dropTarget=0;points=[[0,0.5],[1,0.5]];portConstraint=eastwest;top=0;left=0;right=0;bottom=0;" vertex="1" parent="g7EFuA3oKOo5NqV6qDpY-1">
          <mxGeometry y="120" width="224" height="30" as="geometry" />
        </mxCell>
        <mxCell id="g7EFuA3oKOo5NqV6qDpY-12" value="" style="shape=partialRectangle;connectable=0;fillColor=none;top=0;left=0;bottom=0;right=0;editable=1;overflow=hidden;whiteSpace=wrap;html=1;" vertex="1" parent="g7EFuA3oKOo5NqV6qDpY-11">
          <mxGeometry width="30" height="30" as="geometry">
            <mxRectangle width="30" height="30" as="alternateBounds" />
          </mxGeometry>
        </mxCell>
        <mxCell id="g7EFuA3oKOo5NqV6qDpY-13" value="published_at&amp;nbsp;&lt;span style=&quot;white-space: pre;&quot;&gt;&#x9;&lt;span style=&quot;white-space: pre;&quot;&gt;&#x9;&lt;/span&gt;&lt;/span&gt;TIMESTAMP" style="shape=partialRectangle;connectable=0;fillColor=none;top=0;left=0;bottom=0;right=0;align=left;spacingLeft=6;overflow=hidden;whiteSpace=wrap;html=1;" vertex="1" parent="g7EFuA3oKOo5NqV6qDpY-11">
          <mxGeometry x="30" width="194" height="30" as="geometry">
            <mxRectangle width="194" height="30" as="alternateBounds" />
          </mxGeometry>
        </mxCell>
        <mxCell id="5ii5PPbnZk3QMc-egu6X-1" value="comment" style="shape=table;startSize=30;container=1;collapsible=1;childLayout=tableLayout;fixedRows=1;rowLines=0;fontStyle=1;align=center;resizeLast=1;html=1;" vertex="1" parent="1">
          <mxGeometry x="-520" y="158" width="224" height="180" as="geometry" />
        </mxCell>
        <mxCell id="5ii5PPbnZk3QMc-egu6X-2" value="" style="shape=tableRow;horizontal=0;startSize=0;swimlaneHead=0;swimlaneBody=0;fillColor=none;collapsible=0;dropTarget=0;points=[[0,0.5],[1,0.5]];portConstraint=eastwest;top=0;left=0;right=0;bottom=1;" vertex="1" parent="5ii5PPbnZk3QMc-egu6X-1">
          <mxGeometry y="30" width="224" height="30" as="geometry" />
        </mxCell>
        <mxCell id="5ii5PPbnZk3QMc-egu6X-3" value="PK" style="shape=partialRectangle;connectable=0;fillColor=none;top=0;left=0;bottom=0;right=0;fontStyle=1;overflow=hidden;whiteSpace=wrap;html=1;" vertex="1" parent="5ii5PPbnZk3QMc-egu6X-2">
          <mxGeometry width="30" height="30" as="geometry">
            <mxRectangle width="30" height="30" as="alternateBounds" />
          </mxGeometry>
        </mxCell>
        <mxCell id="5ii5PPbnZk3QMc-egu6X-4" value="comment_id&lt;span style=&quot;white-space: pre;&quot;&gt;&#x9;&lt;/span&gt;&lt;span style=&quot;white-space: pre;&quot;&gt;&#x9;&lt;/span&gt;VARCHAR" style="shape=partialRectangle;connectable=0;fillColor=none;top=0;left=0;bottom=0;right=0;align=left;spacingLeft=6;fontStyle=5;overflow=hidden;whiteSpace=wrap;html=1;" vertex="1" parent="5ii5PPbnZk3QMc-egu6X-2">
          <mxGeometry x="30" width="194" height="30" as="geometry">
            <mxRectangle width="194" height="30" as="alternateBounds" />
          </mxGeometry>
        </mxCell>
        <mxCell id="5ii5PPbnZk3QMc-egu6X-5" value="" style="shape=tableRow;horizontal=0;startSize=0;swimlaneHead=0;swimlaneBody=0;fillColor=none;collapsible=0;dropTarget=0;points=[[0,0.5],[1,0.5]];portConstraint=eastwest;top=0;left=0;right=0;bottom=0;" vertex="1" parent="5ii5PPbnZk3QMc-egu6X-1">
          <mxGeometry y="60" width="224" height="30" as="geometry" />
        </mxCell>
        <mxCell id="5ii5PPbnZk3QMc-egu6X-6" value="FK" style="shape=partialRectangle;connectable=0;fillColor=none;top=0;left=0;bottom=0;right=0;editable=1;overflow=hidden;whiteSpace=wrap;html=1;" vertex="1" parent="5ii5PPbnZk3QMc-egu6X-5">
          <mxGeometry width="30" height="30" as="geometry">
            <mxRectangle width="30" height="30" as="alternateBounds" />
          </mxGeometry>
        </mxCell>
        <mxCell id="5ii5PPbnZk3QMc-egu6X-7" value="post_id&lt;span style=&quot;white-space: pre;&quot;&gt;&#x9;&lt;/span&gt;&lt;span style=&quot;white-space: pre;&quot;&gt;&#x9;&lt;span style=&quot;white-space: pre;&quot;&gt;&#x9;&lt;/span&gt;&lt;/span&gt;VARCHAR" style="shape=partialRectangle;connectable=0;fillColor=none;top=0;left=0;bottom=0;right=0;align=left;spacingLeft=6;overflow=hidden;whiteSpace=wrap;html=1;" vertex="1" parent="5ii5PPbnZk3QMc-egu6X-5">
          <mxGeometry x="30" width="194" height="30" as="geometry">
            <mxRectangle width="194" height="30" as="alternateBounds" />
          </mxGeometry>
        </mxCell>
        <mxCell id="5ii5PPbnZk3QMc-egu6X-8" value="" style="shape=tableRow;horizontal=0;startSize=0;swimlaneHead=0;swimlaneBody=0;fillColor=none;collapsible=0;dropTarget=0;points=[[0,0.5],[1,0.5]];portConstraint=eastwest;top=0;left=0;right=0;bottom=0;" vertex="1" parent="5ii5PPbnZk3QMc-egu6X-1">
          <mxGeometry y="90" width="224" height="30" as="geometry" />
        </mxCell>
        <mxCell id="5ii5PPbnZk3QMc-egu6X-9" value="FK" style="shape=partialRectangle;connectable=0;fillColor=none;top=0;left=0;bottom=0;right=0;editable=1;overflow=hidden;whiteSpace=wrap;html=1;" vertex="1" parent="5ii5PPbnZk3QMc-egu6X-8">
          <mxGeometry width="30" height="30" as="geometry">
            <mxRectangle width="30" height="30" as="alternateBounds" />
          </mxGeometry>
        </mxCell>
        <mxCell id="5ii5PPbnZk3QMc-egu6X-10" value="user_id&lt;span style=&quot;white-space: pre;&quot;&gt;&#x9;&lt;/span&gt;&lt;span style=&quot;white-space: pre;&quot;&gt;&#x9;&lt;span style=&quot;white-space: pre;&quot;&gt;&#x9;&lt;/span&gt;&lt;/span&gt;VARHCAR" style="shape=partialRectangle;connectable=0;fillColor=none;top=0;left=0;bottom=0;right=0;align=left;spacingLeft=6;overflow=hidden;whiteSpace=wrap;html=1;" vertex="1" parent="5ii5PPbnZk3QMc-egu6X-8">
          <mxGeometry x="30" width="194" height="30" as="geometry">
            <mxRectangle width="194" height="30" as="alternateBounds" />
          </mxGeometry>
        </mxCell>
        <mxCell id="5ii5PPbnZk3QMc-egu6X-11" value="" style="shape=tableRow;horizontal=0;startSize=0;swimlaneHead=0;swimlaneBody=0;fillColor=none;collapsible=0;dropTarget=0;points=[[0,0.5],[1,0.5]];portConstraint=eastwest;top=0;left=0;right=0;bottom=0;" vertex="1" parent="5ii5PPbnZk3QMc-egu6X-1">
          <mxGeometry y="120" width="224" height="30" as="geometry" />
        </mxCell>
        <mxCell id="5ii5PPbnZk3QMc-egu6X-12" value="" style="shape=partialRectangle;connectable=0;fillColor=none;top=0;left=0;bottom=0;right=0;editable=1;overflow=hidden;whiteSpace=wrap;html=1;" vertex="1" parent="5ii5PPbnZk3QMc-egu6X-11">
          <mxGeometry width="30" height="30" as="geometry">
            <mxRectangle width="30" height="30" as="alternateBounds" />
          </mxGeometry>
        </mxCell>
        <mxCell id="5ii5PPbnZk3QMc-egu6X-13" value="content&lt;span style=&quot;white-space: pre;&quot;&gt;&#x9;&lt;span style=&quot;white-space: pre;&quot;&gt;&#x9;&lt;span style=&quot;white-space: pre;&quot;&gt;&#x9;&lt;/span&gt;VARCHAR&lt;/span&gt;&lt;/span&gt;" style="shape=partialRectangle;connectable=0;fillColor=none;top=0;left=0;bottom=0;right=0;align=left;spacingLeft=6;overflow=hidden;whiteSpace=wrap;html=1;" vertex="1" parent="5ii5PPbnZk3QMc-egu6X-11">
          <mxGeometry x="30" width="194" height="30" as="geometry">
            <mxRectangle width="194" height="30" as="alternateBounds" />
          </mxGeometry>
        </mxCell>
        <mxCell id="Kas4R4vUs0ZO2DVo0JC4-1" value="" style="shape=tableRow;horizontal=0;startSize=0;swimlaneHead=0;swimlaneBody=0;fillColor=none;collapsible=0;dropTarget=0;points=[[0,0.5],[1,0.5]];portConstraint=eastwest;top=0;left=0;right=0;bottom=0;" vertex="1" parent="5ii5PPbnZk3QMc-egu6X-1">
          <mxGeometry y="150" width="224" height="30" as="geometry" />
        </mxCell>
        <mxCell id="Kas4R4vUs0ZO2DVo0JC4-2" value="" style="shape=partialRectangle;connectable=0;fillColor=none;top=0;left=0;bottom=0;right=0;editable=1;overflow=hidden;whiteSpace=wrap;html=1;" vertex="1" parent="Kas4R4vUs0ZO2DVo0JC4-1">
          <mxGeometry width="30" height="30" as="geometry">
            <mxRectangle width="30" height="30" as="alternateBounds" />
          </mxGeometry>
        </mxCell>
        <mxCell id="Kas4R4vUs0ZO2DVo0JC4-3" value="published_at&amp;nbsp;&lt;span style=&quot;white-space: pre;&quot;&gt;&#x9;&lt;span style=&quot;white-space: pre;&quot;&gt;&#x9;&lt;/span&gt;&lt;/span&gt;TIMESTAMP" style="shape=partialRectangle;connectable=0;fillColor=none;top=0;left=0;bottom=0;right=0;align=left;spacingLeft=6;overflow=hidden;whiteSpace=wrap;html=1;" vertex="1" parent="Kas4R4vUs0ZO2DVo0JC4-1">
          <mxGeometry x="30" width="194" height="30" as="geometry">
            <mxRectangle width="194" height="30" as="alternateBounds" />
          </mxGeometry>
        </mxCell>
        <mxCell id="x_bmnWJ45CDdRVG7RHHz-1" value="post" style="shape=table;startSize=30;container=1;collapsible=1;childLayout=tableLayout;fixedRows=1;rowLines=0;fontStyle=1;align=center;resizeLast=1;html=1;" vertex="1" parent="1">
          <mxGeometry x="-224" y="-248" width="224" height="170" as="geometry" />
        </mxCell>
        <mxCell id="x_bmnWJ45CDdRVG7RHHz-2" value="" style="shape=tableRow;horizontal=0;startSize=0;swimlaneHead=0;swimlaneBody=0;fillColor=none;collapsible=0;dropTarget=0;points=[[0,0.5],[1,0.5]];portConstraint=eastwest;top=0;left=0;right=0;bottom=1;" vertex="1" parent="x_bmnWJ45CDdRVG7RHHz-1">
          <mxGeometry y="30" width="224" height="30" as="geometry" />
        </mxCell>
        <mxCell id="x_bmnWJ45CDdRVG7RHHz-3" value="PK" style="shape=partialRectangle;connectable=0;fillColor=none;top=0;left=0;bottom=0;right=0;fontStyle=1;overflow=hidden;whiteSpace=wrap;html=1;" vertex="1" parent="x_bmnWJ45CDdRVG7RHHz-2">
          <mxGeometry width="30" height="30" as="geometry">
            <mxRectangle width="30" height="30" as="alternateBounds" />
          </mxGeometry>
        </mxCell>
        <mxCell id="x_bmnWJ45CDdRVG7RHHz-4" value="post_id&lt;span style=&quot;white-space: pre;&quot;&gt;&#x9;&lt;/span&gt;&lt;span style=&quot;white-space: pre;&quot;&gt;&#x9;&lt;span style=&quot;white-space: pre;&quot;&gt;&#x9;&lt;/span&gt;&lt;/span&gt;VARCHAR" style="shape=partialRectangle;connectable=0;fillColor=none;top=0;left=0;bottom=0;right=0;align=left;spacingLeft=6;fontStyle=5;overflow=hidden;whiteSpace=wrap;html=1;" vertex="1" parent="x_bmnWJ45CDdRVG7RHHz-2">
          <mxGeometry x="30" width="194" height="30" as="geometry">
            <mxRectangle width="194" height="30" as="alternateBounds" />
          </mxGeometry>
        </mxCell>
        <mxCell id="x_bmnWJ45CDdRVG7RHHz-5" value="" style="shape=tableRow;horizontal=0;startSize=0;swimlaneHead=0;swimlaneBody=0;fillColor=none;collapsible=0;dropTarget=0;points=[[0,0.5],[1,0.5]];portConstraint=eastwest;top=0;left=0;right=0;bottom=0;" vertex="1" parent="x_bmnWJ45CDdRVG7RHHz-1">
          <mxGeometry y="60" width="224" height="30" as="geometry" />
        </mxCell>
        <mxCell id="x_bmnWJ45CDdRVG7RHHz-6" value="FK" style="shape=partialRectangle;connectable=0;fillColor=none;top=0;left=0;bottom=0;right=0;editable=1;overflow=hidden;whiteSpace=wrap;html=1;" vertex="1" parent="x_bmnWJ45CDdRVG7RHHz-5">
          <mxGeometry width="30" height="30" as="geometry">
            <mxRectangle width="30" height="30" as="alternateBounds" />
          </mxGeometry>
        </mxCell>
        <mxCell id="x_bmnWJ45CDdRVG7RHHz-7" value="user_id&lt;span style=&quot;white-space: pre;&quot;&gt;&#x9;&lt;/span&gt;&lt;span style=&quot;white-space: pre;&quot;&gt;&#x9;&lt;span style=&quot;white-space: pre;&quot;&gt;&#x9;&lt;/span&gt;&lt;/span&gt;VARCHAR" style="shape=partialRectangle;connectable=0;fillColor=none;top=0;left=0;bottom=0;right=0;align=left;spacingLeft=6;overflow=hidden;whiteSpace=wrap;html=1;" vertex="1" parent="x_bmnWJ45CDdRVG7RHHz-5">
          <mxGeometry x="30" width="194" height="30" as="geometry">
            <mxRectangle width="194" height="30" as="alternateBounds" />
          </mxGeometry>
        </mxCell>
        <mxCell id="x_bmnWJ45CDdRVG7RHHz-8" value="" style="shape=tableRow;horizontal=0;startSize=0;swimlaneHead=0;swimlaneBody=0;fillColor=none;collapsible=0;dropTarget=0;points=[[0,0.5],[1,0.5]];portConstraint=eastwest;top=0;left=0;right=0;bottom=0;" vertex="1" parent="x_bmnWJ45CDdRVG7RHHz-1">
          <mxGeometry y="90" width="224" height="30" as="geometry" />
        </mxCell>
        <mxCell id="x_bmnWJ45CDdRVG7RHHz-9" value="" style="shape=partialRectangle;connectable=0;fillColor=none;top=0;left=0;bottom=0;right=0;editable=1;overflow=hidden;whiteSpace=wrap;html=1;" vertex="1" parent="x_bmnWJ45CDdRVG7RHHz-8">
          <mxGeometry width="30" height="30" as="geometry">
            <mxRectangle width="30" height="30" as="alternateBounds" />
          </mxGeometry>
        </mxCell>
        <mxCell id="x_bmnWJ45CDdRVG7RHHz-10" value="content&lt;span style=&quot;white-space: pre;&quot;&gt;&#x9;&lt;/span&gt;&lt;span style=&quot;white-space: pre;&quot;&gt;&#x9;&lt;/span&gt;&lt;span style=&quot;white-space: pre;&quot;&gt;&#x9;&lt;/span&gt;TEXT" style="shape=partialRectangle;connectable=0;fillColor=none;top=0;left=0;bottom=0;right=0;align=left;spacingLeft=6;overflow=hidden;whiteSpace=wrap;html=1;" vertex="1" parent="x_bmnWJ45CDdRVG7RHHz-8">
          <mxGeometry x="30" width="194" height="30" as="geometry">
            <mxRectangle width="194" height="30" as="alternateBounds" />
          </mxGeometry>
        </mxCell>
        <mxCell id="x_bmnWJ45CDdRVG7RHHz-11" value="" style="shape=tableRow;horizontal=0;startSize=0;swimlaneHead=0;swimlaneBody=0;fillColor=none;collapsible=0;dropTarget=0;points=[[0,0.5],[1,0.5]];portConstraint=eastwest;top=0;left=0;right=0;bottom=0;" vertex="1" parent="x_bmnWJ45CDdRVG7RHHz-1">
          <mxGeometry y="120" width="224" height="30" as="geometry" />
        </mxCell>
        <mxCell id="x_bmnWJ45CDdRVG7RHHz-12" value="" style="shape=partialRectangle;connectable=0;fillColor=none;top=0;left=0;bottom=0;right=0;editable=1;overflow=hidden;whiteSpace=wrap;html=1;" vertex="1" parent="x_bmnWJ45CDdRVG7RHHz-11">
          <mxGeometry width="30" height="30" as="geometry">
            <mxRectangle width="30" height="30" as="alternateBounds" />
          </mxGeometry>
        </mxCell>
        <mxCell id="x_bmnWJ45CDdRVG7RHHz-13" value="" style="shape=partialRectangle;connectable=0;fillColor=none;top=0;left=0;bottom=0;right=0;align=left;spacingLeft=6;overflow=hidden;whiteSpace=wrap;html=1;" vertex="1" parent="x_bmnWJ45CDdRVG7RHHz-11">
          <mxGeometry x="30" width="194" height="30" as="geometry">
            <mxRectangle width="194" height="30" as="alternateBounds" />
          </mxGeometry>
        </mxCell>
        <mxCell id="TrXDp0T903TNaXlkHkiW-4" value="" style="shape=tableRow;horizontal=0;startSize=0;swimlaneHead=0;swimlaneBody=0;fillColor=none;collapsible=0;dropTarget=0;points=[[0,0.5],[1,0.5]];portConstraint=eastwest;top=0;left=0;right=0;bottom=0;" vertex="1" parent="x_bmnWJ45CDdRVG7RHHz-1">
          <mxGeometry y="150" width="224" height="20" as="geometry" />
        </mxCell>
        <mxCell id="TrXDp0T903TNaXlkHkiW-5" value="" style="shape=partialRectangle;connectable=0;fillColor=none;top=0;left=0;bottom=0;right=0;editable=1;overflow=hidden;whiteSpace=wrap;html=1;" vertex="1" parent="TrXDp0T903TNaXlkHkiW-4">
          <mxGeometry width="30" height="20" as="geometry">
            <mxRectangle width="30" height="20" as="alternateBounds" />
          </mxGeometry>
        </mxCell>
        <mxCell id="TrXDp0T903TNaXlkHkiW-6" value="" style="shape=partialRectangle;connectable=0;fillColor=none;top=0;left=0;bottom=0;right=0;align=left;spacingLeft=6;overflow=hidden;whiteSpace=wrap;html=1;" vertex="1" parent="TrXDp0T903TNaXlkHkiW-4">
          <mxGeometry x="30" width="194" height="20" as="geometry">
            <mxRectangle width="194" height="20" as="alternateBounds" />
          </mxGeometry>
        </mxCell>
        <mxCell id="N5QeBqfa8DMHkipxGYpY-2" value="" style="edgeStyle=entityRelationEdgeStyle;fontSize=12;html=1;endArrow=ERmandOne;startArrow=ERmandOne;rounded=0;exitX=1;exitY=0.5;exitDx=0;exitDy=0;entryX=0;entryY=0.5;entryDx=0;entryDy=0;" edge="1" parent="1" source="x_bmnWJ45CDdRVG7RHHz-5" target="6ACSp5M027pT7ZYRqjHL-5">
          <mxGeometry width="100" height="100" relative="1" as="geometry">
            <mxPoint x="-80" y="116" as="sourcePoint" />
            <mxPoint x="20" y="16" as="targetPoint" />
          </mxGeometry>
        </mxCell>
        <mxCell id="N5QeBqfa8DMHkipxGYpY-8" value="" style="edgeStyle=entityRelationEdgeStyle;fontSize=12;html=1;endArrow=ERmandOne;startArrow=ERmandOne;rounded=0;exitX=1;exitY=0.5;exitDx=0;exitDy=0;entryX=-0.014;entryY=0.163;entryDx=0;entryDy=0;entryPerimeter=0;" edge="1" parent="1" source="g7EFuA3oKOo5NqV6qDpY-8" target="6ACSp5M027pT7ZYRqjHL-5">
          <mxGeometry width="100" height="100" relative="1" as="geometry">
            <mxPoint x="-416" y="-34" as="sourcePoint" />
            <mxPoint x="-288" y="95" as="targetPoint" />
          </mxGeometry>
        </mxCell>
        <mxCell id="N5QeBqfa8DMHkipxGYpY-10" value="" style="edgeStyle=entityRelationEdgeStyle;fontSize=12;html=1;endArrow=ERmandOne;startArrow=ERmandOne;rounded=0;exitX=1;exitY=0.5;exitDx=0;exitDy=0;entryX=0.002;entryY=0.853;entryDx=0;entryDy=0;entryPerimeter=0;" edge="1" parent="1" source="5ii5PPbnZk3QMc-egu6X-8" target="6ACSp5M027pT7ZYRqjHL-5">
          <mxGeometry width="100" height="100" relative="1" as="geometry">
            <mxPoint x="-376" y="89" as="sourcePoint" />
            <mxPoint x="101" y="138" as="targetPoint" />
            <Array as="points">
              <mxPoint x="-72" y="376" />
            </Array>
          </mxGeometry>
        </mxCell>
        <mxCell id="IinLGyZoJ-S49_YuhVlw-1" value="" style="edgeStyle=entityRelationEdgeStyle;fontSize=12;html=1;endArrow=ERzeroToMany;startArrow=ERmandOne;rounded=0;exitX=0.001;exitY=0.211;exitDx=0;exitDy=0;exitPerimeter=0;" edge="1" parent="1" source="x_bmnWJ45CDdRVG7RHHz-2" target="g7EFuA3oKOo5NqV6qDpY-5">
          <mxGeometry width="100" height="100" relative="1" as="geometry">
            <mxPoint x="-334" y="-213" as="sourcePoint" />
            <mxPoint x="-434" y="-113" as="targetPoint" />
          </mxGeometry>
        </mxCell>
        <mxCell id="IinLGyZoJ-S49_YuhVlw-2" value="" style="edgeStyle=entityRelationEdgeStyle;fontSize=12;html=1;endArrow=ERzeroToMany;startArrow=ERmandOne;rounded=0;exitX=-0.004;exitY=0.722;exitDx=0;exitDy=0;exitPerimeter=0;entryX=1;entryY=0.5;entryDx=0;entryDy=0;" edge="1" parent="1" source="x_bmnWJ45CDdRVG7RHHz-2" target="5ii5PPbnZk3QMc-egu6X-5">
          <mxGeometry width="100" height="100" relative="1" as="geometry">
            <mxPoint x="-216" y="-204" as="sourcePoint" />
            <mxPoint x="-328" y="43" as="targetPoint" />
          </mxGeometry>
        </mxCell>
      </root>
    </mxGraphModel>
  </diagram>
</mxfile>
